<svg width="20" height="20" viewBox="0 0 20 20" fill="none" xmlns="http://www.w3.org/2000/svg">
<g id="icon/arrows-spin">
<path id="Vector" d="M16.6666 9.16665C16.4628 7.70016 15.7825 6.34136 14.7305 5.29956C13.6784 4.25776 12.313 3.59074 10.8446 3.40127C9.37624 3.2118 7.88627 3.51038 6.60425 4.25102C5.32224 4.99165 4.31929 6.13326 3.74992 7.49998M3.33325 4.16665V7.49998H6.66659M3.33325 10.8333C3.53705 12.2998 4.21736 13.6586 5.26939 14.7004C6.32141 15.7422 7.68679 16.4092 9.15519 16.5987C10.6236 16.7882 12.1136 16.4896 13.3956 15.7489C14.6776 15.0083 15.6805 13.8667 16.2499 12.5M16.6666 15.8333V12.5H13.3333" stroke="white" stroke-width="1.5" stroke-linecap="round" stroke-linejoin="round"/>
</g>
</svg>
