<svg width="18" height="18" viewBox="0 0 18 18" fill="none" xmlns="http://www.w3.org/2000/svg">
<g clip-path="url(#clip0_5256_2569)">
<path d="M8.17039 0C9.55772 0 10.8079 0.585615 11.6777 1.5197C13.5593 1.22906 15.5167 2.07077 16.531 3.79096L16.6669 4.03794C17.2402 5.15839 17.3084 6.41112 16.9482 7.53349C18.0639 8.89382 18.3391 10.8039 17.5461 12.4518L17.3594 12.8016C16.6614 13.9852 15.516 14.751 14.261 15.0209C13.57 16.7691 11.8425 18 9.82953 18C8.44221 18 7.19203 17.4144 6.3222 16.4803C4.56842 16.7505 2.74544 16.0366 1.68517 14.5399L1.47009 14.2078C0.774429 13.0275 0.665208 11.6716 1.05177 10.4665C-0.143729 9.00889 -0.374089 6.91947 0.640535 5.1984L0.790608 4.96087C1.49618 3.91226 2.56922 3.2294 3.7378 2.97794C4.42885 1.23005 6.15768 2.54118e-05 8.17039 0ZM11.6494 10.1888L11.6304 12.1033C11.6193 13.1824 11.0336 14.1741 10.0942 14.7053L7.95533 15.9143C7.85896 15.9688 7.76081 16.0184 7.66226 16.0656C8.26079 16.5183 9.01137 16.7899 9.82953 16.7899C11.4437 16.7899 12.7972 15.7385 13.2281 14.313L13.2908 14.0767C13.3444 13.8377 13.3723 13.589 13.3723 13.3334V10.9368C13.3722 10.2892 13.0265 9.69074 12.466 9.36633L11.6624 8.90074L11.6494 10.1888ZM9.26821 11.8551L7.50864 12.8264C6.58901 13.3343 5.47121 13.3293 4.55672 12.8122L2.38237 11.5821C2.27681 11.5224 2.17433 11.4581 2.07512 11.3918C1.96929 12.1271 2.10483 12.9001 2.51355 13.5934L2.6719 13.8391C3.51241 15.0251 5.01081 15.5617 6.41201 15.2324L6.65426 15.1662C6.89499 15.0916 7.13151 14.9904 7.35974 14.8613L9.49864 13.6524C10.0623 13.3337 10.4137 12.7377 10.4204 12.0902L10.4286 11.2134L9.26821 11.8551ZM12.8476 6.24186C12.299 5.93167 11.628 5.92778 11.0762 6.23241L10.2526 6.68619L11.3717 7.33495L13.0721 8.31933C14.0065 8.86005 14.5823 9.8573 14.5824 10.9368V13.3334C14.5824 13.4458 14.5773 13.5573 14.5693 13.6678C15.2823 13.3882 15.9061 12.884 16.3171 12.1871L16.4543 11.9295C17.039 10.7151 16.8386 9.30572 16.0099 8.29805L15.822 8.08771C15.6509 7.91128 15.458 7.75007 15.2442 7.60793L15.022 7.47203L12.8476 6.24186ZM3.42937 4.33101C2.77821 4.58653 2.20187 5.03052 1.79388 5.63681L1.68279 5.81289C0.885308 7.16567 1.12859 8.82983 2.17793 9.91229L2.35638 10.0836C2.54207 10.2497 2.74984 10.399 2.97796 10.528L5.1523 11.7581C5.70094 12.0683 6.37195 12.0722 6.92369 11.7676L7.74617 11.3126L6.62945 10.6662L4.92779 9.68067C3.99342 9.13995 3.41771 8.14269 3.41755 7.06315V4.66663C3.41757 4.55384 3.42132 4.4419 3.42937 4.33101ZM7.55709 8.17516L7.54172 9.7953L8.98223 10.6296L10.4428 9.82248L10.4594 8.2047L9.0165 7.36922L7.55709 8.17516ZM8.17039 1.21008C6.65694 1.21011 5.37238 2.13432 4.86278 3.42463L4.7718 3.68698C4.67814 3.99682 4.62768 4.32562 4.62763 4.66663V7.06315C4.62779 7.7108 4.97344 8.30925 5.534 8.63367L6.33756 9.09926L6.35174 7.81L6.37183 5.8968C6.38297 4.8175 6.96851 3.8259 7.90806 3.29465L10.0458 2.08574L10.2597 1.97112C10.2855 1.95816 10.3117 1.94575 10.3377 1.9333C9.73922 1.48078 8.98829 1.21008 8.17039 1.21008ZM15.4887 4.40664C14.5748 2.85626 12.6094 2.25193 10.9651 2.97557L10.6414 3.13866L8.50364 4.34755C7.94002 4.66627 7.5887 5.26117 7.5819 5.90861L7.57245 6.78545L8.73171 6.14495L10.4913 5.17358C11.4109 4.66571 12.5287 4.67072 13.4432 5.18776L15.6175 6.41794L15.913 6.59992C15.917 6.60257 15.9209 6.60553 15.9248 6.6082C16.0216 5.93624 15.9186 5.23289 15.588 4.58745L15.4887 4.40664Z" fill="#D9D9D9"/>
</g>
<defs>
<clipPath id="clip0_5256_2569">
<rect width="18" height="18" fill="white"/>
</clipPath>
</defs>
</svg>
