<svg width="14" height="14" viewBox="0 0 14 14" fill="none" xmlns="http://www.w3.org/2000/svg">
<path d="M1 9.7334C1.33126 9.7334 1.59943 10.0018 1.59961 10.333V11.667C1.5997 11.8614 1.677 12.0481 1.81445 12.1855C1.9519 12.323 2.13863 12.4003 2.33301 12.4004H3.66699L3.78711 12.4121C4.06076 12.4679 4.2666 12.7099 4.2666 13C4.2666 13.2901 4.06076 13.5321 3.78711 13.5879L3.66699 13.5996H2.33301C1.82037 13.5995 1.32831 13.3967 0.96582 13.0342C0.603327 12.6717 0.400477 12.1796 0.400391 11.667V10.333C0.400567 10.0018 0.668738 9.7334 1 9.7334ZM13 9.7334C13.3313 9.7334 13.5994 10.0018 13.5996 10.333V11.667C13.5995 12.1796 13.3967 12.6717 13.0342 13.0342C12.6717 13.3967 12.1796 13.5995 11.667 13.5996H10.333C10.0018 13.5994 9.7334 13.3313 9.7334 13C9.7334 12.6687 10.0018 12.4006 10.333 12.4004H11.667C11.8614 12.4003 12.0481 12.323 12.1855 12.1855C12.323 12.0481 12.4003 11.8614 12.4004 11.667V10.333C12.4006 10.0018 12.6687 9.7334 13 9.7334ZM7.78711 9.0791C8.06072 9.13489 8.2666 9.3769 8.2666 9.66699C8.26645 9.95699 8.06069 10.1992 7.78711 10.2549L7.66699 10.2666H3.66699C3.33573 10.2666 3.06658 9.99821 3.06641 9.66699C3.06641 9.33562 3.33562 9.06641 3.66699 9.06641H7.66699L7.78711 9.0791ZM10.333 6.40039C10.6644 6.40039 10.9336 6.66863 10.9336 7C10.9336 7.33137 10.6644 7.59961 10.333 7.59961H3.66699C3.33562 7.59961 3.06641 7.33137 3.06641 7C3.06641 6.66863 3.33562 6.40039 3.66699 6.40039H10.333ZM9 3.7334C9.33126 3.7334 9.59943 4.00179 9.59961 4.33301C9.59961 4.66438 9.33137 4.93359 9 4.93359H3.66699C3.33562 4.93359 3.06641 4.66438 3.06641 4.33301C3.06658 4.00179 3.33573 3.7334 3.66699 3.7334H9ZM3.66699 0.400391C3.99821 0.400567 4.2666 0.668738 4.2666 1C4.2666 1.33126 3.99821 1.59943 3.66699 1.59961H2.33301C2.13863 1.5997 1.9519 1.677 1.81445 1.81445C1.677 1.9519 1.5997 2.13863 1.59961 2.33301V3.66699C1.59943 3.99821 1.33126 4.2666 1 4.2666C0.668738 4.2666 0.400567 3.99821 0.400391 3.66699V2.33301C0.400477 1.82037 0.603327 1.32831 0.96582 0.96582C1.32831 0.603327 1.82037 0.400477 2.33301 0.400391H3.66699ZM11.667 0.400391C12.1796 0.400477 12.6717 0.603327 13.0342 0.96582C13.3967 1.32831 13.5995 1.82037 13.5996 2.33301V3.66699C13.5994 3.99821 13.3313 4.2666 13 4.2666C12.6687 4.2666 12.4006 3.99821 12.4004 3.66699V2.33301C12.4003 2.13863 12.323 1.9519 12.1855 1.81445C12.0481 1.677 11.8614 1.5997 11.667 1.59961H10.333C10.0018 1.59943 9.7334 1.33126 9.7334 1C9.7334 0.668738 10.0018 0.400567 10.333 0.400391H11.667Z" fill="#D9D9D9"/>
</svg>
