<svg width="18" height="18" viewBox="0 0 18 18" fill="none" xmlns="http://www.w3.org/2000/svg">
<path d="M9.00061 9.4375C11.764 9.43775 13.8743 11.0893 14.733 13.4111C14.9542 14.0093 14.8033 14.5971 14.4498 15.0186C14.1032 15.4315 13.5635 15.6873 12.9781 15.6875H5.02307C4.43738 15.6875 3.8972 15.4317 3.55042 15.0186C3.19677 14.5971 3.04688 14.0095 3.26819 13.4111C4.12701 11.0892 6.23694 9.4375 9.00061 9.4375ZM9.00061 10.4375C6.67784 10.4375 4.92827 11.8073 4.20667 13.7578C4.12138 13.9884 4.17213 14.2033 4.31702 14.376C4.46886 14.5566 4.72533 14.6875 5.02307 14.6875H12.9781C13.2758 14.6873 13.5325 14.5566 13.6842 14.376C13.8289 14.2034 13.8797 13.9882 13.7946 13.7578C13.0731 11.8073 11.3232 10.4377 9.00061 10.4375ZM9.00061 1.5625C10.8298 1.56284 12.3131 3.04576 12.3131 4.875C12.3131 6.70424 10.8298 8.18716 9.00061 8.1875C7.17117 8.1875 5.68811 6.70444 5.68811 4.875C5.68811 3.04556 7.17117 1.5625 9.00061 1.5625ZM9.00061 2.5625C7.72345 2.5625 6.68811 3.59784 6.68811 4.875C6.68811 6.15216 7.72345 7.1875 9.00061 7.1875C10.2775 7.18716 11.3131 6.15195 11.3131 4.875C11.3131 3.59805 10.2775 2.56284 9.00061 2.5625Z" fill="white"/>
</svg>
