<svg width="14" height="14" viewBox="0 0 14 14" fill="none" xmlns="http://www.w3.org/2000/svg">
<path d="M6.69336 13.9741C5.78776 13.9741 4.93929 13.8027 4.14795 13.46C3.35661 13.1214 2.66048 12.6517 2.05957 12.0508C1.45866 11.4499 0.986816 10.7537 0.644043 9.9624C0.305501 9.17106 0.13623 8.32259 0.13623 7.41699C0.13623 6.51139 0.305501 5.66292 0.644043 4.87158C0.986816 4.07601 1.45866 3.37988 2.05957 2.7832C2.66048 2.18229 3.35661 1.71257 4.14795 1.37402C4.93929 1.03125 5.78776 0.859863 6.69336 0.859863C7.59896 0.859863 8.44743 1.03125 9.23877 1.37402C10.0343 1.71257 10.7326 2.18229 11.3335 2.7832C11.9344 3.37988 12.4041 4.07601 12.7427 4.87158C13.0854 5.66292 13.2568 6.51139 13.2568 7.41699C13.2568 8.32259 13.0854 9.17106 12.7427 9.9624C12.4041 10.7537 11.9344 11.4499 11.3335 12.0508C10.7326 12.6517 10.0343 13.1214 9.23877 13.46C8.44743 13.8027 7.59896 13.9741 6.69336 13.9741ZM5.98877 10.5464C6.10726 10.5464 6.21517 10.5189 6.3125 10.4639C6.41406 10.4089 6.50293 10.3263 6.5791 10.2163L9.5498 5.58252C9.59212 5.51481 9.63021 5.44287 9.66406 5.3667C9.69792 5.2863 9.71484 5.21012 9.71484 5.13818C9.71484 4.97314 9.65137 4.83984 9.52441 4.73828C9.40169 4.63672 9.26204 4.58594 9.10547 4.58594C8.89811 4.58594 8.72673 4.69596 8.59131 4.91602L5.96338 9.11816L4.74463 7.56934C4.65999 7.46354 4.57747 7.38949 4.49707 7.34717C4.41667 7.30485 4.32568 7.28369 4.22412 7.28369C4.06331 7.28369 3.92578 7.34294 3.81152 7.46143C3.7015 7.57568 3.64648 7.71322 3.64648 7.87402C3.64648 7.95443 3.6613 8.03271 3.69092 8.10889C3.72054 8.18506 3.76286 8.25911 3.81787 8.33105L5.37305 10.2227C5.46615 10.3369 5.56136 10.4194 5.65869 10.4702C5.75602 10.521 5.86605 10.5464 5.98877 10.5464Z" fill="#79FF92"/>
</svg>
