<svg width="11" height="11" viewBox="0 0 11 11" fill="none" xmlns="http://www.w3.org/2000/svg">
<path d="M5.8102 9.5C5.65181 9.5 5.51926 9.44835 5.41252 9.34505C5.30923 9.24177 5.25758 9.11265 5.25758 8.95771C5.25758 8.87852 5.27136 8.8045 5.2989 8.73563C5.32989 8.66677 5.3712 8.60652 5.42285 8.55487L6.57973 7.38251L8.50097 5.66785L8.6714 6.00354L6.98257 6.07069H0.573273C0.401119 6.07069 0.261674 6.01733 0.154939 5.91058C0.0516461 5.80385 0 5.66612 0 5.49742C0 5.33215 0.0516461 5.19787 0.154939 5.09458C0.261674 4.98784 0.401119 4.93447 0.573273 4.93447H6.98257L8.6714 5.00161L8.50097 5.33731L6.57973 3.61233L5.42285 2.44513C5.3712 2.39692 5.32989 2.3384 5.2989 2.26953C5.27136 2.19722 5.25758 2.12148 5.25758 2.04229C5.25758 1.88735 5.30923 1.75823 5.41252 1.65494C5.51926 1.55165 5.65181 1.5 5.8102 1.5C5.96169 1.5 6.09769 1.55853 6.2182 1.6756L9.62685 5.07908C9.68539 5.13762 9.73015 5.20303 9.76113 5.27534C9.79212 5.34765 9.80762 5.42166 9.80762 5.49742C9.80762 5.57661 9.79212 5.65408 9.76113 5.72983C9.73015 5.80212 9.68539 5.86583 9.62685 5.92092L6.2182 9.3244C6.09769 9.44147 5.96169 9.5 5.8102 9.5ZM10.3654 9.5C10.207 9.5 10.0745 9.44835 9.96772 9.34505C9.86098 9.24177 9.80762 9.11265 9.80762 8.95771V2.05261C9.80762 1.89423 9.86098 1.7634 9.96772 1.6601C10.0745 1.55337 10.207 1.5 10.3654 1.5C10.5238 1.5 10.6563 1.55337 10.7631 1.6601C10.8698 1.7634 10.9232 1.89423 10.9232 2.05261V8.95771C10.9232 9.11265 10.8698 9.24177 10.7631 9.34505C10.6563 9.44835 10.5238 9.5 10.3654 9.5Z" fill="white"/>
</svg>
