<svg width="12" height="12" viewBox="0 0 12 12" fill="none" xmlns="http://www.w3.org/2000/svg">
<path d="M6 0C6.5181 0 7.0019 0.126443 7.45143 0.379327C7.90096 0.632207 8.26286 1.00953 8.53714 1.51128C8.81524 2.00903 8.95429 2.6292 8.95429 3.3718V4.80079C9.25295 4.84383 9.48923 4.95886 9.66286 5.14802C9.88762 5.39287 10 5.76015 10 6.24987V10.5188C10 11.0125 9.88762 11.3818 9.66286 11.6267C9.4381 11.8756 9.10857 12 8.67429 12H3.32571C2.89143 12 2.56191 11.8756 2.33714 11.6267C2.11238 11.3818 2 11.0125 2 10.5188V6.24987C2 5.76015 2.11238 5.39287 2.33714 5.14802C2.51077 4.95886 2.74705 4.84383 3.04571 4.80079V3.3718C3.04571 2.6292 3.18286 2.00903 3.45714 1.51128C3.73523 1.00953 4.09905 0.632207 4.54857 0.379327C4.9981 0.126443 5.48191 0 6 0ZM6 1.07777C5.66095 1.07777 5.34857 1.16207 5.06286 1.33065C4.77714 1.49924 4.54857 1.74611 4.37715 2.07125C4.20572 2.39237 4.12 2.78775 4.12 3.25739V4.78072H7.88571V3.25739C7.88571 2.78775 7.7981 2.39237 7.62286 2.07125C7.45143 1.74611 7.22286 1.49924 6.93715 1.33065C6.65143 1.16207 6.33905 1.07777 6 1.07777Z" fill="#D9D9D9"/>
</svg>
