<svg width="18" height="18" viewBox="0 0 18 18" fill="none" xmlns="http://www.w3.org/2000/svg">
<g id="Group">
<path id="Vector (Stroke)" fill-rule="evenodd" clip-rule="evenodd" d="M7.056 5.58374C6.66546 5.58374 6.29093 5.73888 6.01478 6.01503C5.73863 6.29117 5.5835 6.66571 5.5835 7.05624V14.2779C5.5835 14.4713 5.62158 14.6628 5.69558 14.8414C5.76958 15.0201 5.87805 15.1824 6.01478 15.3191C6.15152 15.4559 6.31384 15.5643 6.49249 15.6383C6.67115 15.7123 6.86262 15.7504 7.056 15.7504H14.2777C14.471 15.7504 14.6625 15.7123 14.8412 15.6383C15.0198 15.5643 15.1821 15.4559 15.3189 15.3191C15.4556 15.1824 15.5641 15.0201 15.6381 14.8414C15.7121 14.6628 15.7502 14.4713 15.7502 14.2779V7.05624C15.7502 6.86287 15.7121 6.67139 15.6381 6.49274C15.5641 6.31409 15.4556 6.15176 15.3189 6.01503C15.1821 5.87829 15.0198 5.76983 14.8412 5.69583C14.6625 5.62183 14.471 5.58374 14.2777 5.58374H7.056ZM4.95412 4.95437C5.51157 4.39691 6.26764 4.08374 7.056 4.08374H14.2777C14.668 4.08374 15.0545 4.16063 15.4152 4.31001C15.7758 4.45939 16.1035 4.67834 16.3795 4.95437C16.6556 5.23039 16.8745 5.55807 17.0239 5.91871C17.1733 6.27936 17.2502 6.66589 17.2502 7.05624V14.2779C17.2502 14.6683 17.1733 15.0548 17.0239 15.4154C16.8745 15.7761 16.6556 16.1038 16.3795 16.3798C16.1035 16.6558 15.7758 16.8748 15.4152 17.0241C15.0545 17.1735 14.668 17.2504 14.2777 17.2504H7.056C6.66564 17.2504 6.27911 17.1735 5.91847 17.0241C5.55783 16.8748 5.23014 16.6558 4.95412 16.3798C4.6781 16.1038 4.45915 15.7761 4.30976 15.4154C4.16038 15.0548 4.0835 14.6683 4.0835 14.2779V7.05624C4.0835 6.26788 4.39667 5.51182 4.95412 4.95437Z" fill="white"/>
<path id="Vector (Stroke)_2" fill-rule="evenodd" clip-rule="evenodd" d="M3.16667 2.25C2.66421 2.25 2.25 2.66421 2.25 3.16667V11.4996C2.25021 11.6613 2.29321 11.8201 2.37462 11.9599C2.45609 12.0997 2.57312 12.2155 2.71383 12.2954C3.07398 12.5 3.20005 12.9579 2.99543 13.318C2.79081 13.6781 2.33298 13.8042 1.97283 13.5996C1.60188 13.3888 1.29333 13.0836 1.07855 12.715C0.863766 12.3463 0.750411 11.9274 0.75 11.5007L0.75 3.16667C0.75 1.83579 1.83579 0.75 3.16667 0.75H11.5C11.9531 0.75 12.3526 0.870383 12.6931 1.11753C13.0173 1.35288 13.2378 1.66738 13.4055 1.96883C13.6068 2.33083 13.4765 2.78749 13.1145 2.9888C12.7525 3.19011 12.2958 3.05984 12.0945 2.69784C11.9772 2.48679 11.8852 2.38462 11.8119 2.33143C11.7549 2.29003 11.6719 2.25 11.5 2.25H3.16667Z" fill="white"/>
</g>
</svg>
