<svg width="20" height="20" viewBox="0 0 20 20" fill="none" xmlns="http://www.w3.org/2000/svg">
<g id="icon/option">
<path id="Vector (Stroke)" fill-rule="evenodd" clip-rule="evenodd" d="M1.5 3.77778C1.5 3.34822 1.82619 3 2.22857 3H7.40952C7.69745 3 7.95836 3.18101 8.0753 3.46189L13.064 15.4444H17.7714C18.1738 15.4444 18.5 15.7927 18.5 16.2222C18.5 16.6518 18.1738 17 17.7714 17H12.5905C12.3026 17 12.0416 16.819 11.9247 16.5381L6.93604 4.55556H2.22857C1.82619 4.55556 1.5 4.20733 1.5 3.77778ZM11.9984 3.77778C11.9984 3.34822 12.3246 3 12.727 3H17.7714C18.1738 3 18.5 3.34822 18.5 3.77778C18.5 4.20733 18.1738 4.55556 17.7714 4.55556H12.727C12.3246 4.55556 11.9984 4.20733 11.9984 3.77778Z" fill="white"/>
</g>
</svg>
