<svg width="18" height="18" viewBox="0 0 18 18" fill="none" xmlns="http://www.w3.org/2000/svg">
<path d="M8.68533 15.7883C8.90552 15.7883 9.1208 15.853 9.30388 15.9747C9.48696 16.0963 9.62963 16.269 9.71385 16.4711C9.79806 16.6733 9.82006 16.8957 9.77702 17.1103C9.73396 17.3248 9.62787 17.5219 9.47208 17.6766C9.31628 17.8311 9.11776 17.9364 8.90175 17.9788C8.68576 18.0214 8.46194 17.9994 8.25859 17.9156C8.05522 17.8316 7.88141 17.6897 7.75926 17.5076C7.63709 17.3256 7.57196 17.1115 7.57221 16.8928C7.57221 16.7476 7.60109 16.6039 7.65703 16.4698C7.71299 16.3356 7.79495 16.2138 7.89831 16.1112C8.00169 16.0087 8.12441 15.9274 8.25944 15.8718C8.39447 15.8164 8.53923 15.788 8.68533 15.7883ZM12.0837 13.6697C12.3453 13.6695 12.6011 13.7463 12.8188 13.8905C13.0364 14.0347 13.2061 14.2399 13.3064 14.48C13.4066 14.72 13.433 14.9842 13.3821 15.2392C13.3312 15.4941 13.2054 15.7284 13.0205 15.9123C12.8356 16.0961 12.6 16.2213 12.3434 16.2721C12.0869 16.3229 11.8208 16.297 11.5791 16.1976C11.3374 16.0981 11.1309 15.9298 10.9855 15.7137C10.8401 15.4976 10.7625 15.2435 10.7625 14.9836C10.7625 14.6353 10.9017 14.3014 11.1494 14.055C11.3971 13.8086 11.7332 13.67 12.0837 13.6697ZM5.24571 13.9686C5.43711 13.9686 5.62422 14.025 5.78336 14.1306C5.9425 14.2362 6.06647 14.3864 6.13971 14.5622C6.21294 14.7378 6.23212 14.9311 6.19479 15.1176C6.15745 15.3041 6.06534 15.4754 5.93001 15.6099C5.79467 15.7444 5.62219 15.8359 5.43448 15.873C5.24678 15.9101 5.05222 15.8912 4.87541 15.8184C4.69858 15.7456 4.54742 15.6223 4.44108 15.4642C4.33475 15.3061 4.27802 15.1202 4.27802 14.9301C4.27802 14.675 4.37994 14.4305 4.56141 14.2502C4.74289 14.0699 4.98906 13.9686 5.24571 13.9686ZM15.4833 11.464C15.7831 11.4638 16.0762 11.552 16.3256 11.7173C16.575 11.8826 16.7694 12.1177 16.8843 12.3927C16.9991 12.6679 17.0294 12.9706 16.9711 13.2627C16.9128 13.5549 16.7685 13.8234 16.5567 14.0341C16.3447 14.2447 16.0747 14.3883 15.7806 14.4465C15.4866 14.5046 15.1818 14.4749 14.9049 14.361C14.6278 14.2471 14.3911 14.0542 14.2245 13.8064C14.0579 13.5589 13.969 13.2676 13.969 12.9698C13.969 12.5706 14.1284 12.1879 14.4124 11.9055C14.6963 11.6232 15.0815 11.4644 15.4833 11.464ZM8.68533 11.829C8.90518 11.8293 9.1201 11.8942 9.30279 12.0157C9.48547 12.1373 9.6278 12.3099 9.71176 12.5118C9.79571 12.7137 9.81749 12.9358 9.77444 13.15C9.7314 13.3642 9.62542 13.561 9.46988 13.7153C9.31433 13.8696 9.11616 13.9747 8.90053 14.0173C8.6849 14.0598 8.46142 14.0378 8.25834 13.9542C8.05525 13.8705 7.88161 13.729 7.7595 13.5473C7.63738 13.3657 7.57221 13.1521 7.57221 12.9337C7.57221 12.7884 7.60109 12.6447 7.65703 12.5106C7.71299 12.3765 7.79495 12.2546 7.89831 12.1521C8.00169 12.0495 8.12441 11.9681 8.25944 11.9127C8.39447 11.8573 8.53922 11.8289 8.68533 11.829ZM1.80598 12.1652C1.96538 12.1652 2.12123 12.2122 2.25378 12.3002C2.38631 12.3882 2.48962 12.5133 2.55063 12.6595C2.61164 12.8059 2.62763 12.9669 2.59653 13.1222C2.56543 13.2776 2.48866 13.4202 2.37595 13.5322C2.26323 13.6442 2.11962 13.7205 1.96328 13.7514C1.80695 13.7823 1.64488 13.7665 1.49762 13.7059C1.35035 13.6453 1.22445 13.5427 1.13588 13.411C1.04732 13.2793 1.00001 13.1245 1 12.966C1 12.7537 1.08498 12.5499 1.23614 12.3998C1.38728 12.2497 1.59223 12.1652 1.80598 12.1652ZM12.0837 9.7055C12.3453 9.70525 12.6011 9.78214 12.8188 9.92636C13.0364 10.0706 13.2061 10.2757 13.3064 10.5157C13.4066 10.7558 13.433 11.0201 13.3821 11.275C13.3312 11.53 13.2054 11.7642 13.0205 11.9481C12.8356 12.132 12.6 12.2572 12.3434 12.308C12.0869 12.3588 11.8208 12.3328 11.5791 12.2334C11.3374 12.134 11.1309 11.9656 10.9855 11.7495C10.8401 11.5334 10.7625 11.2793 10.7625 11.0194C10.7625 10.6711 10.9017 10.3372 11.1494 10.0908C11.3971 9.84444 11.7332 9.70584 12.0837 9.7055ZM5.24571 10.053C5.43711 10.053 5.62422 10.1095 5.78336 10.2151C5.94246 10.3207 6.06647 10.4708 6.13971 10.6465C6.21296 10.8222 6.23214 11.0156 6.19479 11.2021C6.15745 11.3885 6.06532 11.5598 5.93001 11.6943C5.79467 11.8287 5.62219 11.9204 5.43448 11.9575C5.24678 11.9946 5.05222 11.9755 4.87541 11.9027C4.69858 11.83 4.54742 11.7067 4.44108 11.5486C4.33477 11.3905 4.27804 11.2046 4.27802 11.0145C4.27802 10.7595 4.37995 10.515 4.56141 10.3346C4.74289 10.1543 4.98905 10.053 5.24571 10.053ZM15.4833 7.49744C15.7832 7.49719 16.0766 7.58531 16.326 7.75078C16.5755 7.91623 16.7699 8.15156 16.8847 8.42688C16.9994 8.7022 17.0294 9.00519 16.9707 9.29745C16.912 9.58971 16.7675 9.85811 16.5553 10.0687C16.3429 10.2792 16.0725 10.4225 15.7783 10.4802C15.484 10.538 15.1791 10.5077 14.9022 10.3933C14.6253 10.2788 14.3888 10.0852 14.2226 9.83709C14.0565 9.58897 13.9682 9.29736 13.969 8.99936C13.969 8.60027 14.1284 8.21749 14.4124 7.93515C14.6963 7.65282 15.0815 7.494 15.4833 7.49366V7.49744ZM8.68533 7.88979C8.90547 7.88979 9.12071 7.95461 9.30377 8.07612C9.48682 8.19764 9.62948 8.37038 9.71373 8.57246C9.79798 8.77454 9.82009 8.99693 9.77714 9.21147C9.73419 9.42598 9.6281 9.62297 9.47245 9.77762C9.31678 9.93229 9.11841 10.0377 8.90249 10.0803C8.68659 10.123 8.46281 10.1011 8.25944 10.0175C8.05607 9.93376 7.88218 9.79199 7.75987 9.61015C7.63757 9.4283 7.57222 9.21442 7.57221 8.99571C7.57204 8.85043 7.60079 8.70646 7.65667 8.57222C7.71255 8.43798 7.79456 8.31602 7.89795 8.2133C8.00134 8.11059 8.12408 8.02911 8.2592 7.97359C8.39431 7.91808 8.53912 7.88963 8.68533 7.88979ZM1.80598 8.1986C1.96539 8.1986 2.12123 8.24561 2.25378 8.3336C2.38633 8.42159 2.48962 8.54666 2.55063 8.69299C2.61162 8.83931 2.62763 9.00031 2.59653 9.15564C2.56543 9.31098 2.48866 9.45364 2.37595 9.56563C2.26322 9.67763 2.11963 9.7539 1.96328 9.7848C1.80694 9.81569 1.64489 9.79979 1.49762 9.73919C1.35034 9.67857 1.22445 9.57594 1.13588 9.44425C1.04732 9.31256 1 9.15774 1 8.99936C1.00001 8.78698 1.08499 8.58338 1.23614 8.43321C1.38729 8.28303 1.59222 8.19861 1.80598 8.1986ZM12.0837 5.66665C12.3453 5.6664 12.6012 5.74324 12.8189 5.88751C13.0366 6.03179 13.2062 6.23703 13.3065 6.47714C13.4067 6.71727 13.433 6.98157 13.382 7.23656C13.331 7.49155 13.2051 7.72578 13.02 7.90962C12.835 8.09344 12.5992 8.2186 12.3426 8.26926C12.0859 8.3199 11.8199 8.29381 11.5782 8.19421C11.3366 8.09461 11.1301 7.92602 10.9849 7.70979C10.8397 7.49353 10.7622 7.2393 10.7625 6.97932C10.7625 6.63119 10.9016 6.29727 11.1494 6.0511C11.3972 5.80493 11.7333 5.66665 12.0837 5.66665ZM5.24571 6.02289C5.43716 6.02289 5.62431 6.07931 5.78349 6.185C5.94262 6.2907 6.06662 6.44091 6.13983 6.61664C6.21303 6.79239 6.23224 6.98581 6.19479 7.17233C6.15735 7.35887 6.06499 7.53025 5.92952 7.66467C5.79407 7.79907 5.62152 7.89054 5.43374 7.92749C5.24596 7.96444 5.05134 7.94521 4.87455 7.87228C4.69776 7.79933 4.54666 7.67588 4.44047 7.51763C4.33428 7.35936 4.27779 7.17329 4.27802 6.98309C4.27802 6.85689 4.30307 6.73189 4.35172 6.61531C4.40037 6.49874 4.47167 6.39288 4.56153 6.3037C4.6514 6.21455 4.75803 6.14379 4.87541 6.09561C4.99281 6.04744 5.11869 6.02271 5.24571 6.02289ZM15.4833 3.52949C15.7831 3.52925 16.0762 3.61741 16.3256 3.78271C16.575 3.94801 16.7694 4.18311 16.8843 4.45821C16.9991 4.7333 17.0294 5.03604 16.9711 5.32817C16.9128 5.62033 16.7685 5.88881 16.5567 6.09951C16.3447 6.31021 16.0747 6.45373 15.7806 6.51193C15.4866 6.57012 15.1818 6.54035 14.9049 6.42643C14.6278 6.31251 14.3911 6.11957 14.2245 5.87194C14.0579 5.6243 13.969 5.33304 13.969 5.03518C13.969 4.63609 14.1284 4.25331 14.4124 3.97099C14.6963 3.68864 15.0815 3.52982 15.4833 3.52949ZM8.68533 3.94302C8.90517 3.94325 9.1201 4.00818 9.30279 4.1297C9.48547 4.25123 9.6278 4.42392 9.71176 4.6258C9.79573 4.82767 9.81749 5.04976 9.77444 5.26396C9.7314 5.47816 9.62542 5.67489 9.46988 5.82926C9.31433 5.98362 9.11616 6.08872 8.90053 6.13125C8.6849 6.17376 8.46142 6.15176 8.25834 6.06812C8.05524 5.98448 7.88161 5.84294 7.7595 5.66129C7.63739 5.47967 7.57222 5.26612 7.57221 5.04771C7.57221 4.90254 7.60109 4.75869 7.65703 4.62458C7.71299 4.4905 7.79496 4.36863 7.89831 4.26604C8.00169 4.16346 8.12441 4.08213 8.25944 4.02668C8.39447 3.97125 8.53922 3.94285 8.68533 3.94302ZM1.80598 4.22067C1.96538 4.22067 2.12123 4.2677 2.25378 4.35567C2.38633 4.44367 2.48962 4.56875 2.55063 4.71508C2.61164 4.8614 2.62763 5.02238 2.59653 5.17772C2.56543 5.33306 2.48866 5.47573 2.37595 5.58771C2.26323 5.6997 2.11962 5.77597 1.96328 5.80688C1.80695 5.83777 1.64488 5.82199 1.49762 5.76139C1.35035 5.70079 1.22445 5.59813 1.13588 5.46646C1.04732 5.33478 1.00001 5.17993 1 5.02156C1 4.80918 1.08498 4.60547 1.23614 4.45528C1.38728 4.30512 1.59223 4.22068 1.80598 4.22067ZM12.0911 1.71002C12.3529 1.70977 12.6088 1.78668 12.8265 1.93101C13.0442 2.07534 13.214 2.28055 13.3142 2.52075C13.4144 2.76097 13.4406 3.02539 13.3895 3.2804C13.3384 3.5354 13.2123 3.76958 13.0271 3.95335C12.842 4.13711 12.6061 4.26222 12.3494 4.31274C12.0927 4.36326 11.8266 4.33699 11.585 4.23722C11.3433 4.13743 11.1368 3.9686 10.9917 3.75218C10.8467 3.53575 10.7696 3.28138 10.77 3.02136C10.7704 2.67333 10.9097 2.33959 11.1574 2.0935C11.4051 1.84743 11.7409 1.70902 12.0911 1.70868V1.71002ZM5.24571 2.10845C5.43711 2.10845 5.62422 2.16493 5.78336 2.27057C5.94247 2.37621 6.06647 2.52633 6.13971 2.70197C6.21296 2.87766 6.23214 3.07104 6.19479 3.25754C6.15745 3.44401 6.06532 3.61531 5.93001 3.74975C5.79467 3.88422 5.62219 3.97585 5.43448 4.01295C5.24678 4.05003 5.05222 4.03097 4.87541 3.95821C4.69858 3.88544 4.54742 3.76216 4.44108 3.60405C4.33477 3.44596 4.27804 3.26013 4.27802 3.07C4.27786 2.94371 4.30278 2.81857 4.35136 2.70185C4.39992 2.58514 4.47117 2.47908 4.56105 2.38977C4.65094 2.30045 4.75767 2.22956 4.87517 2.1813C4.99265 2.13304 5.11858 2.10829 5.24571 2.10845ZM8.68533 0C8.90546 0 9.12071 0.0648276 9.30377 0.186326C9.48679 0.307837 9.62947 0.480609 9.71373 0.682669C9.79798 0.884746 9.82008 1.10715 9.77714 1.32167C9.73419 1.53621 9.62813 1.73328 9.47245 1.88795C9.31678 2.04261 9.11841 2.148 8.90249 2.19066C8.68659 2.23332 8.46281 2.21135 8.25944 2.12767C8.05604 2.04397 7.88218 1.90221 7.75987 1.72036C7.63755 1.53849 7.57221 1.32465 7.57221 1.10592C7.57221 0.81261 7.68957 0.53128 7.89831 0.323882C8.10705 0.116517 8.39015 1.409e-05 8.68533 0Z" fill="#D9D9D9"/>
</svg>
