<svg width="14" height="14" viewBox="0 0 14 14" fill="none" xmlns="http://www.w3.org/2000/svg">
<path d="M7.87534 2.03787C7.87534 2.15391 7.92144 2.26519 8.00348 2.34723C8.08553 2.42928 8.19681 2.47537 8.31284 2.47537C8.42888 2.47537 8.54016 2.42928 8.6222 2.34723C8.70425 2.26519 8.75034 2.15391 8.75034 2.03787V0.4375C8.75034 0.321468 8.70425 0.210188 8.6222 0.128141C8.54016 0.0460936 8.42888 0 8.31284 0C8.19681 0 8.08553 0.0460936 8.00348 0.128141C7.92144 0.210188 7.87534 0.321468 7.87534 0.4375V2.03787ZM11.8128 2.0685C11.8925 1.98599 11.9366 1.87547 11.9356 1.76076C11.9346 1.64605 11.8886 1.53632 11.8075 1.4552C11.7264 1.37409 11.6167 1.32808 11.502 1.32708C11.3872 1.32608 11.2767 1.37018 11.1942 1.44988L10.0628 2.58125C10.0211 2.62161 9.98773 2.66988 9.9648 2.72326C9.94187 2.77664 9.9298 2.83405 9.9293 2.89214C9.92879 2.95023 9.93986 3.00784 9.96186 3.06161C9.98386 3.11537 10.0163 3.16422 10.0574 3.2053C10.0985 3.24638 10.1473 3.27886 10.2011 3.30086C10.2549 3.32286 10.3125 3.33393 10.3706 3.33342C10.4287 3.33292 10.4861 3.32085 10.5395 3.29792C10.5928 3.27499 10.6411 3.24166 10.6815 3.19988L11.8128 2.0685ZM5.94422 3.19988C5.98458 3.24166 6.03285 3.27499 6.08623 3.29792C6.13961 3.32085 6.19702 3.33292 6.25511 3.33342C6.3132 3.33393 6.37081 3.32286 6.42457 3.30086C6.47834 3.27886 6.52719 3.24638 6.56827 3.2053C6.60935 3.16422 6.64183 3.11537 6.66383 3.06161C6.68583 3.00784 6.6969 2.95023 6.69639 2.89214C6.69589 2.83405 6.68382 2.77664 6.66089 2.72326C6.63796 2.66988 6.60463 2.62161 6.56284 2.58125L5.43147 1.44988C5.34896 1.37018 5.23844 1.32608 5.12373 1.32708C5.00902 1.32808 4.89929 1.37409 4.81817 1.4552C4.73706 1.53632 4.69105 1.64605 4.69005 1.76076C4.68905 1.87547 4.73315 1.98599 4.81284 2.0685L5.94422 3.19988ZM5.40084 5.38738C5.51688 5.38738 5.62816 5.34128 5.7102 5.25923C5.79225 5.17719 5.83834 5.06591 5.83834 4.94988C5.83834 4.83384 5.79225 4.72256 5.7102 4.64052C5.62816 4.55847 5.51688 4.51238 5.40084 4.51238H3.80047C3.68444 4.51238 3.57316 4.55847 3.49111 4.64052C3.40906 4.72256 3.36297 4.83384 3.36297 4.94988C3.36297 5.06591 3.40906 5.17719 3.49111 5.25923C3.57316 5.34128 3.68444 5.38738 3.80047 5.38738H5.40084ZM12.8252 5.38738C12.9413 5.38738 13.0525 5.34128 13.1346 5.25923C13.2166 5.17719 13.2627 5.06591 13.2627 4.94988C13.2627 4.83384 13.2166 4.72256 13.1346 4.64052C13.0525 4.55847 12.9413 4.51238 12.8252 4.51238H11.2248C11.1088 4.51238 10.9975 4.55847 10.9155 4.64052C10.8334 4.72256 10.7873 4.83384 10.7873 4.94988C10.7873 5.06591 10.8334 5.17719 10.9155 5.25923C10.9975 5.34128 11.1088 5.38738 11.2248 5.38738H12.8252ZM11.1942 8.44987C11.2346 8.49166 11.2829 8.52499 11.3362 8.54792C11.3896 8.57085 11.447 8.58292 11.5051 8.58342C11.5632 8.58393 11.6208 8.57286 11.6746 8.55086C11.7283 8.52886 11.7772 8.49638 11.8183 8.4553C11.8593 8.41422 11.8918 8.36537 11.9138 8.3116C11.9358 8.25784 11.9469 8.20023 11.9464 8.14214C11.9459 8.08405 11.9338 8.02664 11.9109 7.97326C11.888 7.91988 11.8546 7.87161 11.8128 7.83125L10.6815 6.69988C10.6411 6.65809 10.5928 6.62476 10.5395 6.60183C10.4861 6.5789 10.4287 6.56683 10.3706 6.56633C10.3125 6.56582 10.2549 6.57689 10.2011 6.59889C10.1473 6.62089 10.0985 6.65337 10.0574 6.69445C10.0163 6.73553 9.98386 6.78438 9.96186 6.83815C9.93986 6.89191 9.92879 6.94952 9.9293 7.00761C9.9298 7.0657 9.94187 7.12311 9.9648 7.17649C9.98773 7.22987 10.0211 7.27814 10.0628 7.3185L11.1942 8.44987ZM7.87534 9.46225C7.87534 9.57828 7.92144 9.68956 8.00348 9.77161C8.08553 9.85366 8.19681 9.89975 8.31284 9.89975C8.42888 9.89975 8.54016 9.85366 8.6222 9.77161C8.70425 9.68956 8.75034 9.57828 8.75034 9.46225V7.86187C8.75034 7.74584 8.70425 7.63456 8.6222 7.55252C8.54016 7.47047 8.42888 7.42437 8.31284 7.42437C8.19681 7.42437 8.08553 7.47047 8.00348 7.55252C7.92144 7.63456 7.87534 7.74584 7.87534 7.86187V9.46225ZM9.49759 5.00238C9.57935 4.92037 9.62525 4.80929 9.62525 4.6935C9.62525 4.5777 9.57935 4.46663 9.49759 4.38463L8.87809 3.76512C8.79605 3.68311 8.68479 3.63703 8.56878 3.63703C8.45277 3.63703 8.34151 3.68311 8.25947 3.76512L7.12809 4.89738C7.04608 4.97942 7 5.09068 7 5.20669C7 5.3227 7.04608 5.43396 7.12809 5.516L7.74759 6.1355C7.82964 6.21752 7.9409 6.26359 8.05691 6.26359C8.17292 6.26359 8.28418 6.21752 8.36622 6.1355L9.49759 5.00412V5.00238ZM6.87259 7.62738C6.95435 7.54537 7.00025 7.43429 7.00025 7.3185C7.00025 7.2027 6.95435 7.09163 6.87259 7.00962L6.25309 6.39012C6.17105 6.30811 6.05979 6.26203 5.94378 6.26203C5.82777 6.26203 5.71651 6.30811 5.63447 6.39012L0.128094 11.8974C0.0460755 11.9794 0 12.0907 0 12.2067C0 12.3227 0.0460755 12.434 0.128094 12.516L0.747594 13.1355C0.829637 13.2175 0.940897 13.2636 1.05691 13.2636C1.17292 13.2636 1.28418 13.2175 1.36622 13.1355L6.87259 7.62738Z" fill="white"/>
</svg>
