<svg width="20" height="14" viewBox="0 0 20 14" fill="none" xmlns="http://www.w3.org/2000/svg">
<path d="M19.5931 2.20112C19.4799 1.77861 19.2576 1.39325 18.9486 1.08359C18.6396 0.773939 18.2547 0.550845 17.8324 0.436633C16.2675 0.00700138 10.0069 7.59e-06 10.0069 7.59e-06C10.0069 7.59e-06 3.74735 -0.00698661 2.18146 0.403661C1.75968 0.523704 1.37585 0.750141 1.06681 1.06123C0.757775 1.37232 0.533909 1.75762 0.416707 2.18014C0.00399882 3.74479 1.46411e-06 6.99001 1.46411e-06 6.99001C1.46411e-06 6.99001 -0.00399569 10.2512 0.405714 11.7999C0.635552 12.6561 1.31008 13.3326 2.16747 13.5634C3.74835 13.993 9.99193 14 9.99193 14C9.99193 14 16.2525 14.007 17.8174 13.5973C18.2394 13.4823 18.6241 13.2594 18.9337 12.9505C19.2433 12.6417 19.4672 12.2575 19.5831 11.8359C19.9969 10.2722 19.9999 7.02798 19.9999 7.02798C19.9999 7.02798 20.0198 3.76578 19.5931 2.20112ZM8.00434 9.99643L8.00934 4.00157L13.2127 7.004L8.00434 9.99643Z" fill="white"/>
</svg>
