<svg width="20" height="20" viewBox="0 0 20 20" fill="none" xmlns="http://www.w3.org/2000/svg">
<path fill-rule="evenodd" clip-rule="evenodd" d="M5.92792 5.92798C6.22082 5.63509 6.69569 5.63509 6.98858 5.92798L9.99992 8.93932L13.0113 5.92798C13.3041 5.63509 13.779 5.63509 14.0719 5.92798C14.3648 6.22088 14.3648 6.69575 14.0719 6.98864L11.0606 9.99998L14.0719 13.0113C14.3648 13.3042 14.3648 13.7791 14.0719 14.072C13.779 14.3649 13.3041 14.3649 13.0113 14.072L9.99992 11.0606L6.98858 14.072C6.69569 14.3649 6.22082 14.3649 5.92792 14.072C5.63503 13.7791 5.63503 13.3042 5.92792 13.0113L8.93926 9.99998L5.92792 6.98864C5.63503 6.69575 5.63503 6.22088 5.92792 5.92798Z" fill="white"/>
</svg>
