<svg width="18" height="18" viewBox="0 0 18 18" fill="none" xmlns="http://www.w3.org/2000/svg">
<path d="M11.3639 1.06528e-06C12.3683 1.06528e-06 13.1709 -0.000926266 13.8183 0.0519396C14.4753 0.105625 15.0445 0.218058 15.5682 0.48476L15.8745 0.656558C16.5726 1.08459 17.1414 1.6982 17.5152 2.43178L17.6085 2.63022C17.8095 3.09886 17.9011 3.6068 17.948 4.18172C18.001 4.82907 18 5.63166 18 6.63614V11.3639C18 12.3683 18.001 13.1709 17.948 13.8183C17.9011 14.3932 17.8095 14.9012 17.6085 15.3698L17.5152 15.5682C17.1414 16.3018 16.5726 16.9154 15.8745 17.3435L15.5682 17.5152C15.0445 17.7819 14.4753 17.8944 13.8183 17.948C13.1709 18.001 12.3683 18 11.3639 18H6.63614C5.63166 18 4.82907 18.001 4.18172 17.948C3.6068 17.9011 3.09886 17.8095 2.63022 17.6085L2.43178 17.5152C1.6982 17.1414 1.08459 16.5726 0.656558 15.8745L0.48476 15.5682C0.218058 15.0445 0.105625 14.4753 0.0519396 13.8183C-0.000926266 13.1709 1.06528e-06 12.3683 1.06528e-06 11.3639V6.63614C1.06528e-06 5.63166 -0.000926266 4.82907 0.0519396 4.18172C0.105625 3.52469 0.218058 2.95541 0.48476 2.43178L0.656558 2.12549C1.08459 1.42746 1.6982 0.858556 2.43178 0.48476L2.63022 0.391538C3.09886 0.190519 3.6068 0.0989156 4.18172 0.0519396C4.82907 -0.000926266 5.63166 1.06528e-06 6.63614 1.06528e-06H11.3639ZM6.63614 1.6354C5.60464 1.6354 4.88017 1.63717 4.31489 1.68335C3.89849 1.71737 3.6087 1.77311 3.38266 1.85381L3.17491 1.94304C2.71102 2.17941 2.32301 2.53915 2.05223 2.98047L1.94304 3.17491C1.81343 3.42948 1.72873 3.75932 1.68335 4.31489C1.63717 4.88017 1.6354 5.60464 1.6354 6.63614V11.3639C1.6354 12.3954 1.63717 13.1198 1.68335 13.6851C1.72873 14.2406 1.81343 14.5705 1.94304 14.8251L2.05223 15.0196C2.32301 15.4609 2.71102 15.8206 3.17491 16.057L3.38266 16.1462C3.6087 16.2269 3.89849 16.2827 4.31489 16.3166C4.88017 16.3629 5.60464 16.3646 6.63614 16.3646H11.3639C12.3954 16.3646 13.1198 16.3629 13.6851 16.3166C14.2406 16.2712 14.5705 16.1865 14.8251 16.057L15.0196 15.9477C15.4609 15.677 15.8206 15.2891 16.057 14.8251L16.1462 14.6173C16.2269 14.3913 16.2827 14.1015 16.3166 13.6851C16.3629 13.1198 16.3646 12.3954 16.3646 11.3639V6.63614C16.3646 5.60464 16.3629 4.88017 16.3166 4.31489C16.2827 3.89849 16.2269 3.6087 16.1462 3.38266L16.057 3.17491C15.8206 2.71102 15.4609 2.32301 15.0196 2.05223L14.8251 1.94304C14.5705 1.81343 14.2406 1.72873 13.6851 1.68335C13.1198 1.63717 12.3954 1.6354 11.3639 1.6354H6.63614ZM9.16514 7.2887C9.53786 7.36498 9.81882 7.6952 9.81904 8.09042V11.9059C10.0874 12.04 10.2728 12.3154 10.2732 12.6357C10.2732 13.0312 9.99221 13.3612 9.61927 13.4374L9.45547 13.4547H8.54587C8.09398 13.4547 7.72818 13.0876 7.72818 12.6357C7.72852 12.3152 7.91374 12.0399 8.18231 11.9059V8.81889C7.91387 8.68466 7.72818 8.41096 7.72818 8.09042C7.72842 7.63873 8.09413 7.27272 8.54587 7.27272H9.00001L9.16514 7.2887ZM9.00001 4.54529C9.4516 4.54546 9.8188 4.9114 9.81904 5.36298V5.81712C9.81904 6.2689 9.45175 6.63596 9.00001 6.63614C8.54832 6.63591 8.18231 6.26886 8.18231 5.81712V5.36298C8.18254 4.91143 8.54847 4.54553 9.00001 4.54529Z" fill="white"/>
</svg>
