<svg width="20" height="20" viewBox="0 0 20 20" fill="none" xmlns="http://www.w3.org/2000/svg">
<path d="M9.99805 2.59173e-07C12.7099 1.04846e-06 13.0487 0.0130008 14.1182 0.0595706C14.9479 0.0764524 15.7689 0.234069 16.5459 0.525391C17.2101 0.781545 17.8138 1.17415 18.3174 1.67676C18.8208 2.1793 19.214 2.78141 19.4707 3.44434C19.7667 4.23077 19.9241 5.06233 19.9375 5.90234C19.9997 6.96355 20 7.3076 20 10.0166C20 12.7256 19.9853 13.0641 19.9375 14.1309C19.9208 14.9602 19.7647 15.7786 19.4727 16.5547C19.216 17.218 18.8229 17.8205 18.3193 18.3232C17.8158 18.826 17.2121 19.2184 16.5479 19.4746C15.7709 19.7655 14.9497 19.922 14.1201 19.9385C13.0597 19.9994 12.7119 20 10 20C7.28809 20 6.94922 19.985 5.87988 19.9385C5.0485 19.9108 4.2278 19.7421 3.45312 19.4395C2.78873 19.1834 2.18541 18.7916 1.68164 18.2891C1.17788 17.7865 0.784274 17.1846 0.527344 16.5215C0.235251 15.7442 0.0791593 14.9251 0.0625 14.0957C0.000332016 13.0349 0 12.6908 0 9.98242C0 7.27342 0.0147433 6.93491 0.0625 5.86816C0.0790593 5.03977 0.235954 4.22014 0.527344 3.44434C0.784108 2.78136 1.1772 2.17932 1.68066 1.67676C2.18425 1.17415 2.78793 0.781545 3.45215 0.525391C4.22823 0.234413 5.04814 0.0767483 5.87695 0.0595706C6.9376 -0.000309229 7.28591 2.59173e-07 9.99805 2.59173e-07ZM9.95801 1.75488C7.25143 1.75488 6.95464 1.76872 5.89844 1.81641C5.26544 1.82503 4.63855 1.94154 4.04492 2.16113C3.16866 2.49601 2.47449 3.18469 2.13574 4.05957C1.91353 4.65861 1.79638 5.29189 1.79004 5.93066C1.7312 7.00488 1.73145 7.28246 1.73145 9.9834C1.73145 12.6845 1.74228 12.9817 1.79004 14.0352C1.8008 14.667 1.91788 15.2925 2.13574 15.8857C2.30416 16.3173 2.5609 16.7094 2.88965 17.0361C3.21837 17.3628 3.61202 17.6171 4.04492 17.7832C4.63856 18.0028 5.26543 18.1193 5.89844 18.1279C6.97352 18.1889 7.25032 18.1895 9.95801 18.1895C12.663 18.1895 12.9609 18.1767 14.0156 18.1279C14.649 18.1194 15.2771 18.0029 15.8711 17.7832C16.3025 17.6162 16.6942 17.3608 17.0215 17.0342C17.3488 16.7075 17.6049 16.3165 17.7725 15.8857C17.9947 15.2864 18.111 14.6527 18.1172 14.0137L18.1299 14.0156C18.1776 12.9555 18.1777 12.6652 18.1777 9.96289C18.1777 7.26095 18.1649 6.96465 18.1172 5.91016C18.1064 5.2784 17.9903 4.6528 17.7725 4.05957C17.605 3.62861 17.3489 3.23702 17.0215 2.91016C16.6942 2.58349 16.3025 2.32826 15.8711 2.16113C15.2771 1.94139 14.649 1.82489 14.0156 1.81641C12.942 1.75544 12.6641 1.75488 9.95801 1.75488ZM9.99219 4.84766C11.3542 4.84766 12.6609 5.38802 13.624 6.34961C14.587 7.31119 15.1279 8.61575 15.1279 9.97559C15.1279 11.3354 14.5871 12.64 13.624 13.6016C12.6609 14.5632 11.3542 15.1025 9.99219 15.1025C8.63038 15.1025 7.32437 14.5629 6.36133 13.6016C5.39826 12.64 4.85647 11.3354 4.85645 9.97559C4.85645 8.61569 5.39823 7.3112 6.36133 6.34961C7.32438 5.38823 8.63033 4.84766 9.99219 4.84766ZM9.99219 6.64355C9.55422 6.64356 9.12047 6.7292 8.71582 6.89648C8.31104 7.06389 7.94262 7.30982 7.63281 7.61914C7.32324 7.9283 7.07777 8.29535 6.91016 8.69922C6.74249 9.10337 6.65625 9.53716 6.65625 9.97461C6.65628 10.412 6.74252 10.8449 6.91016 11.249C7.07782 11.6532 7.32301 12.0208 7.63281 12.3301C7.94262 12.6394 8.31104 12.8844 8.71582 13.0518C9.12052 13.2191 9.55416 13.3057 9.99219 13.3057C10.877 13.3057 11.7259 12.9548 12.3516 12.3301C12.9772 11.7054 13.3281 10.858 13.3281 9.97461C13.3281 9.09125 12.9771 8.24382 12.3516 7.61914C11.7259 6.99444 10.877 6.64355 9.99219 6.64355ZM15.3311 3.46387C15.6486 3.46389 15.9532 3.5903 16.1777 3.81445C16.4021 4.03854 16.5282 4.34235 16.5283 4.65918C16.5283 4.9762 16.4022 5.28071 16.1777 5.50488C15.9532 5.72904 15.6486 5.85447 15.3311 5.85449C15.0136 5.85449 14.7089 5.72902 14.4844 5.50488C14.2598 5.28071 14.1338 4.97621 14.1338 4.65918C14.1339 4.34231 14.26 4.03855 14.4844 3.81445C14.7089 3.59028 15.0135 3.46387 15.3311 3.46387Z" fill="white"/>
</svg>
