<svg width="13" height="13" viewBox="0 0 13 13" fill="none" xmlns="http://www.w3.org/2000/svg">
<path fill-rule="evenodd" clip-rule="evenodd" d="M6.50008 1.21875C5.00431 1.21875 3.79175 2.43131 3.79175 3.92708V4.875H3.65633C2.83366 4.875 2.16675 5.54191 2.16675 6.36458V10.4271C2.16675 11.2498 2.83366 11.9167 3.65633 11.9167H9.34383C10.1665 11.9167 10.8334 11.2498 10.8334 10.4271V6.36458C10.8334 5.54191 10.1665 4.875 9.34383 4.875H9.20841V3.92708C9.20841 2.43131 7.99585 1.21875 6.50008 1.21875ZM8.39591 4.875V3.92708C8.39591 2.88004 7.54712 2.03125 6.50008 2.03125C5.45304 2.03125 4.60425 2.88004 4.60425 3.92708V4.875H8.39591ZM6.50008 7.17708C6.72445 7.17708 6.90633 7.35897 6.90633 7.58333V9.20833C6.90633 9.4327 6.72445 9.61458 6.50008 9.61458C6.27572 9.61458 6.09383 9.4327 6.09383 9.20833V7.58333C6.09383 7.35897 6.27572 7.17708 6.50008 7.17708Z" fill="#8E929B"/>
</svg>
