<svg width="18" height="18" viewBox="0 0 18 18" fill="none" xmlns="http://www.w3.org/2000/svg">
<g clip-path="url(#clip0_5261_3089)">
<path d="M6.34072 3.11791C6.88144 1.53545 9.06784 1.48752 9.70894 2.97413L9.76319 3.11882L10.4929 5.25289C10.6601 5.74231 10.9304 6.19017 11.2854 6.56626C11.6404 6.94236 12.0719 7.23794 12.5509 7.43307L12.7471 7.50632L14.8811 8.23516C16.4634 8.77591 16.5114 10.9624 15.0257 11.6036L14.8811 11.6578L12.7471 12.3876C12.2575 12.5547 11.8095 12.8249 11.4333 13.1799C11.0571 13.535 10.7614 13.9666 10.5661 14.4457L10.4929 14.641L9.76409 16.776C9.22337 18.3584 7.03697 18.4064 6.39678 16.9206L6.34072 16.776L5.61192 14.6419C5.4448 14.1523 5.17462 13.7043 4.81959 13.328C4.46457 12.9517 4.03297 12.656 3.55392 12.4608L3.35861 12.3876L1.22465 11.6587C-0.358633 11.118 -0.406557 8.93144 1.07998 8.29122L1.22465 8.23516L3.35861 7.50632C3.848 7.33908 4.29584 7.06883 4.67192 6.71379C5.04799 6.35876 5.34356 5.92719 5.53868 5.44821L5.61192 5.25289L6.34072 3.11791ZM8.05241 3.70207L7.32361 5.83614C7.06897 6.58243 6.65473 7.26425 6.10973 7.83411C5.56472 8.40397 4.90206 8.84818 4.16788 9.13581L3.94183 9.2181L1.80787 9.94694L3.94183 10.6758C4.68808 10.9304 5.36987 11.3447 5.9397 11.8897C6.50953 12.4348 6.95371 13.0974 7.24132 13.8317L7.32361 14.0577L8.05241 16.1918L8.78121 14.0577C9.03584 13.3114 9.45009 12.6296 9.99509 12.0598C10.5401 11.4899 11.2028 11.0457 11.9369 10.7581L12.163 10.6767L14.2969 9.94694L12.163 9.2181C11.4167 8.96345 10.7349 8.54918 10.1651 8.00415C9.59529 7.45912 9.1511 6.79642 8.86349 6.06221L8.78211 5.83614L8.05241 3.70207ZM15.2862 1.6339e-07C15.4553 -2.13382e-07 15.6211 0.0474544 15.7646 0.136971C15.9082 0.226487 16.0237 0.354475 16.0981 0.50639L16.1415 0.612189L16.458 1.53997L17.3867 1.85646C17.5562 1.91406 17.7048 2.02069 17.8137 2.16284C17.9225 2.30499 17.9867 2.47626 17.9982 2.65495C18.0096 2.83363 17.9677 3.01169 17.8778 3.16655C17.788 3.32141 17.6542 3.44611 17.4934 3.52483L17.3867 3.56824L16.4589 3.88473L16.1425 4.81341C16.0848 4.9829 15.978 5.13144 15.8359 5.24022C15.6937 5.349 15.5224 5.41311 15.3437 5.42445C15.165 5.43578 14.987 5.39381 14.8322 5.30387C14.6774 5.21392 14.5528 5.08005 14.4742 4.91921L14.4308 4.81341L14.1143 3.88563L13.1857 3.56914C13.0161 3.51154 12.8675 3.40491 12.7587 3.26276C12.6498 3.12061 12.5856 2.94934 12.5742 2.77066C12.5627 2.59197 12.6046 2.41391 12.6945 2.25905C12.7843 2.10419 12.9182 1.9795 13.079 1.90077L13.1857 1.85736L14.1134 1.54087L14.4299 0.612189C14.4908 0.433529 14.6062 0.278432 14.7598 0.168645C14.9133 0.0588578 15.0974 -0.000113288 15.2862 1.6339e-07Z" fill="#D9D9D9"/>
</g>
<defs>
<clipPath id="clip0_5261_3089">
<rect width="18" height="18" fill="white"/>
</clipPath>
</defs>
</svg>
