<svg width="14" height="14" viewBox="0 0 14 14" fill="none" xmlns="http://www.w3.org/2000/svg">
<path d="M6.69336 13.9741C5.78776 13.9741 4.93929 13.8027 4.14795 13.46C3.35661 13.1214 2.66048 12.6517 2.05957 12.0508C1.45866 11.4499 0.986816 10.7537 0.644043 9.9624C0.305501 9.17106 0.13623 8.32259 0.13623 7.41699C0.13623 6.51139 0.305501 5.66292 0.644043 4.87158C0.986816 4.07601 1.45866 3.37988 2.05957 2.7832C2.66048 2.18229 3.35661 1.71257 4.14795 1.37402C4.93929 1.03125 5.78776 0.859863 6.69336 0.859863C7.59896 0.859863 8.44743 1.03125 9.23877 1.37402C10.0343 1.71257 10.7326 2.18229 11.3335 2.7832C11.9344 3.37988 12.4041 4.07601 12.7427 4.87158C13.0854 5.66292 13.2568 6.51139 13.2568 7.41699C13.2568 8.32259 13.0854 9.17106 12.7427 9.9624C12.4041 10.7537 11.9344 11.4499 11.3335 12.0508C10.7326 12.6517 10.0343 13.1214 9.23877 13.46C8.44743 13.8027 7.59896 13.9741 6.69336 13.9741ZM6.69971 8.51514C7.07633 8.51514 7.26888 8.31836 7.27734 7.9248L7.37891 4.73828C7.38737 4.54362 7.32601 4.38493 7.19482 4.26221C7.06364 4.13525 6.89648 4.07178 6.69336 4.07178C6.486 4.07178 6.31885 4.13525 6.19189 4.26221C6.06494 4.38493 6.0057 4.5415 6.01416 4.73193L6.10303 7.93115C6.11572 8.32048 6.31462 8.51514 6.69971 8.51514ZM6.69971 10.6987C6.9113 10.6987 7.09326 10.631 7.24561 10.4956C7.39795 10.3602 7.47412 10.1867 7.47412 9.9751C7.47412 9.76774 7.39795 9.59424 7.24561 9.45459C7.09326 9.31494 6.9113 9.24512 6.69971 9.24512C6.48389 9.24512 6.2998 9.31494 6.14746 9.45459C5.99512 9.59424 5.91895 9.76774 5.91895 9.9751C5.91895 10.1867 5.99512 10.3602 6.14746 10.4956C6.30404 10.631 6.48812 10.6987 6.69971 10.6987Z" fill="#FA2B2A"/>
</svg>
