<svg width="20" height="20" viewBox="0 0 20 20" fill="none" xmlns="http://www.w3.org/2000/svg">
<g id="icon/stars">
<path id="Union" fill-rule="evenodd" clip-rule="evenodd" d="M15.2742 1.14549L15.6664 2.31436C15.8121 2.75861 16.0602 3.16241 16.3906 3.49316C16.721 3.82392 17.1245 4.07237 17.5686 4.21849L18.7514 4.61075C18.7914 4.62369 18.8262 4.64897 18.8509 4.68294C18.8756 4.71691 18.8889 4.75784 18.8889 4.79984C18.8889 4.84185 18.8756 4.88278 18.8509 4.91675C18.8262 4.95072 18.7914 4.97599 18.7514 4.98894L17.5686 5.38208C17.1288 5.52845 16.7292 5.77543 16.4015 6.10339C16.0739 6.43135 15.8273 6.83124 15.6814 7.27126L15.2892 8.45419C15.2762 8.49416 15.251 8.52899 15.217 8.55369C15.183 8.5784 15.1421 8.59171 15.1001 8.59171C15.0581 8.59171 15.0172 8.5784 14.9832 8.55369C14.9492 8.52899 14.924 8.49416 14.911 8.45419L14.5047 7.28621C14.3585 6.84633 14.1119 6.44657 13.7843 6.11864C13.4567 5.79071 13.0572 5.54364 12.6175 5.39703L11.4347 5.00389C11.3948 4.99094 11.3599 4.96567 11.3352 4.9317C11.3105 4.89773 11.2972 4.8568 11.2972 4.8148C11.2972 4.77279 11.3105 4.73186 11.3352 4.69789C11.3599 4.66392 11.3948 4.63865 11.4347 4.6257L12.6026 4.21849C13.0468 4.07262 13.4504 3.82425 13.7809 3.49346C14.1113 3.16267 14.3593 2.75875 14.5047 2.31436L14.897 1.13054C14.9114 1.09101 14.938 1.05709 14.973 1.03365C15.0079 1.01022 15.0494 0.998493 15.0915 1.00016C15.1335 1.00182 15.174 1.01679 15.207 1.04291C15.24 1.06902 15.2629 1.10495 15.2742 1.14549ZM7.98515 4.76337C8.17078 4.6411 8.3901 4.58009 8.61226 4.58899C8.83442 4.59788 9.04815 4.67622 9.22342 4.81292C9.38893 4.94201 9.51876 5.12172 9.58513 5.33358L10.1981 7.16202L10.1981 7.16202L10.1996 7.16652C10.3923 7.75347 10.72 8.28686 11.1564 8.72372C11.5928 9.16057 12.1256 9.48866 12.7119 9.68158L12.7144 9.68239L14.5708 10.3003C14.7828 10.37 14.9674 10.5048 15.0985 10.6854C15.2301 10.8668 15.301 11.0852 15.301 11.3094C15.301 11.5335 15.2301 11.7519 15.0985 11.9334C14.9674 12.114 14.7827 12.2487 14.5707 12.3184L12.7144 12.9363L12.7144 12.9363C12.1338 13.1296 11.6062 13.4558 11.1736 13.889C10.7411 14.3221 10.4154 14.8504 10.2226 15.4317L9.60552 17.2921L9.60554 17.2921L9.60348 17.2981C9.53189 17.508 9.39647 17.6903 9.21608 17.8194C9.03568 17.9485 8.81938 18.018 8.59747 18.018C8.37554 18.018 8.15925 17.9485 7.97886 17.8194C7.79934 17.6909 7.66435 17.5097 7.59249 17.3011L6.95235 15.4652L6.95227 15.4653L6.9488 15.4548C6.75565 14.8735 6.42982 14.3453 5.99719 13.9121C5.56464 13.479 5.03725 13.1527 4.45684 12.959L4.45649 12.9589L2.6016 12.3422C2.38953 12.2725 2.20485 12.1377 2.07376 11.9571C1.94208 11.7756 1.8712 11.5572 1.8712 11.3331C1.8712 11.109 1.94208 10.8905 2.07376 10.7091C2.20335 10.5305 2.38531 10.3968 2.59432 10.3264L4.42323 9.68612L4.43689 9.68149C5.02306 9.48885 5.55577 9.16091 5.99197 8.72412C6.42816 8.28733 6.7556 7.75394 6.94777 7.16703L6.94864 7.16442L7.56569 5.30306C7.56933 5.29208 7.57322 5.28119 7.57736 5.27039C7.65695 5.06298 7.79952 4.88563 7.98515 4.76337ZM8.77519 7.63668L8.57264 7.0325L8.3733 7.6338L8.37286 7.63516C8.10745 8.445 7.65547 9.18112 7.05335 9.78406C6.45266 10.3856 5.71934 10.8377 4.91231 11.1042L4.28883 11.3224L4.93039 11.5358L4.93102 11.536C5.7328 11.8034 6.46124 12.254 7.05857 12.8522C7.65456 13.449 8.10366 14.1762 8.37047 14.9764L8.58713 15.5978L8.79884 14.9595L9.4315 15.1693L8.79884 14.9595C9.06507 14.1568 9.51478 13.4273 10.1123 12.829C10.7097 12.2307 11.4385 11.7801 12.2406 11.5131L12.2406 11.5131L12.8527 11.3094L12.2431 11.1064L12.2417 11.106C11.4326 10.8395 10.6974 10.3866 10.0952 9.78383C9.49331 9.1813 9.0412 8.44585 8.77519 7.63668Z" fill="white"/>
</g>
</svg>
