<svg width="18" height="18" viewBox="0 0 18 18" fill="none" xmlns="http://www.w3.org/2000/svg">
<path d="M9.23831 4.85791L13.5484 0.52246L13.9735 0.095215V5.2002H16V12.4848H13.9735V17.6187L13.5484 17.1914L9.23831 12.855V18H8.74079V12.877L4.45213 17.1914L4.02749 17.6187V12.4848H2V5.2002H4.027V0.095215L4.45164 0.52246L8.74079 4.83642V0H9.23831V4.85791ZM4.52501 10.3052V16.4107L8.74079 12.1704V6.06445L4.52501 10.3052ZM9.24951 12.1592L13.476 16.4107V12.4848H13.475L13.4755 12.2348V10.3056L9.24951 6.0542V12.1592ZM2.49752 11.9848H4.027L4.02749 10.2022V10.0986L4.10037 10.0254L8.39875 5.70115H4.027V5.7002H2.49752V11.9848ZM13.9735 5.70115H9.60175L13.9006 10.0254L13.9735 10.0986V11.9848H15.5025V5.7002H13.9735V5.70115ZM4.52452 5.2002H8.39875L4.52452 1.30225V5.2002ZM9.60175 5.2002H13.476V1.30225L9.60175 5.2002Z" fill="#D9D9D9"/>
</svg>
