<svg width="10" height="10" viewBox="0 0 10 10" fill="none" xmlns="http://www.w3.org/2000/svg">
<path d="M9.33008 6.93164C9.33008 7.12305 9.26562 7.2832 9.13672 7.41211C9.00781 7.54102 8.85742 7.60547 8.68555 7.60547C8.50977 7.60547 8.36133 7.54102 8.24023 7.41211C8.11914 7.2793 8.05859 7.125 8.05859 6.94922V4.75781L8.15234 2.34375L7.20312 3.41016L1.61914 8.99414C1.48242 9.12695 1.32812 9.19336 1.15625 9.19336C1.03906 9.19336 0.929688 9.16211 0.828125 9.09961C0.730469 9.04102 0.650391 8.96094 0.587891 8.85938C0.525391 8.75781 0.494141 8.65039 0.494141 8.53711C0.494141 8.36914 0.564453 8.21484 0.705078 8.07422L6.27734 2.48438L7.34375 1.54688L4.82422 1.63477H2.73828C2.5625 1.63477 2.41016 1.57422 2.28125 1.45312C2.15234 1.32813 2.08789 1.17969 2.08789 1.00781C2.08789 0.835938 2.15039 0.685547 2.27539 0.556641C2.40039 0.427734 2.56055 0.363281 2.75586 0.363281H8.63867C8.84961 0.363281 9.01562 0.427734 9.13672 0.556641C9.26172 0.681641 9.32422 0.845703 9.32422 1.04883L9.33008 6.93164Z" fill="#8E929B"/>
</svg>
