<svg width="27" height="27" viewBox="0 0 27 27" fill="none" xmlns="http://www.w3.org/2000/svg">
<path d="M13.083 0C20.3086 0 26.1668 5.85743 26.167 13.083C26.167 20.3087 20.3087 26.167 13.083 26.167C5.85743 26.1668 0 20.3086 0 13.083C0.000176267 5.85754 5.85754 0.000176262 13.083 0ZM13.083 1.5C6.68597 1.50018 1.50018 6.68597 1.5 13.083C1.5 19.4802 6.68586 24.6668 13.083 24.667C19.4803 24.667 24.667 19.4803 24.667 13.083C24.6668 6.68586 19.4802 1.5 13.083 1.5ZM13.084 8.08398C15.8454 8.08398 18.084 10.3226 18.084 13.084C18.084 15.8454 15.8454 18.084 13.084 18.084C10.3226 18.084 8.08398 15.8454 8.08398 13.084C8.08398 10.3226 10.3226 8.08398 13.084 8.08398Z" fill="white"/>
</svg>
