<svg width="64" height="26" viewBox="0 0 64 26" fill="none" xmlns="http://www.w3.org/2000/svg">
<path d="M29.0424 21.329C27.5284 21.329 26.2195 21.0071 25.1158 20.3633C24.0121 19.7124 23.1596 18.7891 22.5582 17.5934C21.9639 16.3977 21.6668 14.9827 21.6668 13.3484V13.3272C21.6668 11.6858 21.9675 10.2708 22.5689 9.08223C23.1773 7.89364 24.0334 6.97743 25.1371 6.33361C26.2408 5.68271 27.5426 5.35726 29.0424 5.35726C30.5565 5.35726 31.8654 5.68271 32.969 6.33361C34.0727 6.97743 34.9217 7.89717 35.516 9.09284C36.1174 10.2814 36.4181 11.6929 36.4181 13.3272V13.3484C36.4181 14.9827 36.1174 16.3977 35.516 17.5934C34.9217 18.7891 34.0727 19.7124 32.969 20.3633C31.8724 21.0071 30.5636 21.329 29.0424 21.329ZM29.0424 18.6122C29.8844 18.6122 30.6131 18.3964 31.2286 17.9648C31.8441 17.5333 32.3182 16.9248 32.6507 16.1395C32.9832 15.3471 33.1495 14.4168 33.1495 13.3484V13.3272C33.1495 12.2518 32.9797 11.3215 32.6401 10.5361C32.3075 9.75081 31.8335 9.14591 31.218 8.72141C30.6025 8.28984 29.8773 8.07405 29.0424 8.07405C28.2147 8.07405 27.493 8.28984 26.8775 8.72141C26.262 9.14591 25.7844 9.75081 25.4448 10.5361C25.1052 11.3215 24.9354 12.2518 24.9354 13.3272V13.3484C24.9354 14.4168 25.1017 15.3471 25.4342 16.1395C25.7738 16.9248 26.2514 17.5333 26.8669 17.9648C27.4824 18.3964 28.2076 18.6122 29.0424 18.6122ZM38.7104 21V9.46428H41.8092V11.3002H41.9366C42.2196 10.6564 42.6476 10.1505 43.2207 9.78265C43.7937 9.40768 44.5048 9.22019 45.3538 9.22019C46.6273 9.22019 47.6036 9.60224 48.2828 10.3663C48.9691 11.1234 49.3122 12.1846 49.3122 13.5501V21H46.2134V14.2187C46.2134 13.4333 46.0365 12.832 45.6827 12.4145C45.3361 11.9971 44.8055 11.7884 44.0909 11.7884C43.6239 11.7884 43.2207 11.8981 42.8811 12.1174C42.5415 12.3296 42.2762 12.6268 42.0851 13.0088C41.9012 13.3909 41.8092 13.8401 41.8092 14.3566V21H38.7104ZM51.8486 21V9.46428H54.9474V21H51.8486ZM53.398 7.84058C52.931 7.84058 52.5313 7.67785 52.1988 7.3524C51.8663 7.01988 51.7 6.62368 51.7 6.16381C51.7 5.70394 51.8663 5.31128 52.1988 4.98583C52.5313 4.66038 52.931 4.49766 53.398 4.49766C53.872 4.49766 54.2717 4.66038 54.5972 4.98583C54.9297 5.31128 55.096 5.70394 55.096 6.16381C55.096 6.62368 54.9297 7.01988 54.5972 7.3524C54.2717 7.67785 53.872 7.84058 53.398 7.84058ZM62.2488 21.138C60.9045 21.138 59.9246 20.8833 59.3091 20.3739C58.6936 19.8574 58.3858 19.0119 58.3858 17.8375V11.799H56.6985V9.46428H58.3858V6.68382H61.5165V9.46428H63.7663V11.799H61.5165V17.3069C61.5165 17.8304 61.6332 18.2054 61.8667 18.4318C62.1073 18.6582 62.4787 18.7714 62.981 18.7714C63.1508 18.7714 63.2923 18.7679 63.4055 18.7608C63.5258 18.7466 63.6461 18.736 63.7663 18.7289V21.0106C63.5895 21.046 63.3701 21.0743 63.1084 21.0955C62.8466 21.1238 62.5601 21.138 62.2488 21.138Z" fill="#B7C4CF"/>
<path d="M6.10352e-05 12.7848C6.10352e-05 11.5176 1.02735 10.4903 2.29457 10.4903C3.5618 10.4903 4.58908 11.5176 4.58908 12.7848C4.58908 15.0025 6.38684 16.8002 8.60448 16.8002C10.8221 16.8002 12.6199 15.0025 12.6199 12.7848C12.6199 10.5672 10.8221 8.76944 8.60448 8.76944C7.33726 8.76944 6.30997 7.74216 6.30997 6.47493C6.30997 5.20771 7.33726 4.18042 8.60448 4.18042C13.3566 4.18042 17.2089 8.03275 17.2089 12.7848C17.2089 17.5369 13.3566 21.3893 8.60448 21.3893C3.85239 21.3893 6.10352e-05 17.5369 6.10352e-05 12.7848Z" fill="#B7C4CF"/>
</svg>
