<svg width="20" height="20" viewBox="0 0 20 20" fill="none" xmlns="http://www.w3.org/2000/svg">
<path fill-rule="evenodd" clip-rule="evenodd" d="M7.52499 5.83368C7.52499 3.5463 9.37927 1.69202 11.6667 1.69202C13.954 1.69202 15.8083 3.5463 15.8083 5.83368V12.7087C15.8083 15.8015 13.3011 18.3087 10.2083 18.3087H9.79165C6.69886 18.3087 4.19165 15.8015 4.19165 12.7087V8.95868C4.19165 8.62731 4.46028 8.35868 4.79165 8.35868C5.12302 8.35868 5.39165 8.62731 5.39165 8.95868V12.7087C5.39165 15.1387 7.3616 17.1087 9.79165 17.1087H10.2083C12.6384 17.1087 14.6083 15.1387 14.6083 12.7087V5.83368C14.6083 4.20905 13.2913 2.89202 11.6667 2.89202C10.042 2.89202 8.72499 4.20905 8.72499 5.83368V12.3962C8.72499 13.0428 9.24919 13.567 9.89582 13.567C10.5425 13.567 11.0667 13.0428 11.0667 12.3962V6.45868C11.0667 6.12731 11.3353 5.85868 11.6667 5.85868C11.998 5.85868 12.2667 6.12731 12.2667 6.45868V12.3962C12.2667 13.7056 11.2052 14.767 9.89582 14.767C8.58644 14.767 7.52499 13.7056 7.52499 12.3962V5.83368Z" fill="white"/>
</svg>
