<svg width="60" height="60" viewBox="0 0 60 60" fill="none" xmlns="http://www.w3.org/2000/svg">
<path d="M49.4609 1.64839C51.6573 -0.548009 55.2182 -0.547424 57.415 1.64839C59.6117 3.8451 59.6117 7.40581 57.415 9.60249L37.4858 29.5317L57.415 49.4609L57.8032 49.8857C59.6055 52.0951 59.4745 55.3555 57.415 57.415C55.3555 59.4746 52.0951 59.6055 49.8857 57.8032L49.4609 57.415L29.5317 37.4858L9.60247 57.415C7.4058 59.6117 3.8451 59.6117 1.6484 57.415C-0.547425 55.2182 -0.54801 51.6573 1.6484 49.4609L21.5776 29.5317L1.6484 9.60249L1.26021 9.17769C-0.541286 6.96835 -0.410834 3.70763 1.6484 1.64839C3.70763 -0.410834 6.96835 -0.541286 9.17767 1.26022L9.60247 1.64839L29.5317 21.5776L49.4609 1.64839Z" fill="#D9D9D9"/>
</svg>
