<svg width="18" height="18" viewBox="0 0 18 18" fill="none" xmlns="http://www.w3.org/2000/svg">
<g clip-path="url(#clip0_5256_2570)">
<path d="M12.6235 0.00239228C12.9489 -0.0178481 13.2204 0.0898853 13.4858 0.343213C13.8195 0.661176 14.0786 1.21185 14.2211 1.90474C14.3846 2.69974 14.3898 3.71742 14.2338 4.53267C14.2204 4.58329 14.2142 4.6356 14.2163 4.68794L14.3559 4.8022C14.626 5.02469 14.866 5.28164 15.0688 5.56685C15.4362 6.0892 15.6771 6.69035 15.7729 7.32173C15.8139 7.65963 15.8195 8.00114 15.7905 8.34028C15.7222 8.92351 15.5469 9.41675 15.2456 9.86958L15.1469 10.0151L15.1753 10.0639C15.2686 10.2333 15.3515 10.4083 15.4223 10.5883C15.5468 10.9205 15.6208 11.2483 15.6831 11.7319C15.7063 11.9194 15.7063 12.7585 15.6831 12.9535C15.5953 13.6614 15.4221 14.1978 15.1401 14.6244C15.1157 14.6641 15.0885 14.7026 15.059 14.7387C15.0554 14.744 15.0711 14.7906 15.0942 14.8442C15.3206 15.336 15.459 15.8571 15.5415 16.5131C15.5635 16.8272 15.5635 17.1433 15.5415 17.4574C15.5182 17.6193 15.4903 17.7872 15.476 17.8442L15.4487 17.9447L15.434 18.0004H14.8862C14.5889 18.0004 14.3452 17.9979 14.3374 17.9936C14.347 17.9685 14.3583 17.9432 14.3706 17.9194C14.5878 17.491 14.6042 16.7395 14.4145 15.9838C14.3261 15.6301 14.2273 15.3698 14.0415 15.0131L13.9301 14.7953V14.6615C13.9301 14.538 13.9326 14.5235 13.9731 14.4418C14.0101 14.3713 14.0595 14.3077 14.1186 14.2543C14.1799 14.1948 14.2363 14.13 14.2866 14.061C14.4913 13.7677 14.6395 13.2492 14.686 12.6703C14.7557 11.793 14.5244 10.7983 14.1547 10.394C13.9298 10.1457 13.9301 9.84544 14.1557 9.60396C14.2607 9.49221 14.333 9.402 14.4057 9.2895C14.8346 8.62512 14.916 7.75607 14.6274 6.92525C14.2967 5.9773 13.5498 5.26967 12.6919 5.09712C12.4399 5.04539 12.2419 5.04195 11.9849 5.0854C11.8221 5.11315 11.7119 5.10222 11.6069 5.05122C11.4729 4.98826 11.4053 4.90949 11.3267 4.72896C11.299 4.66161 11.2536 4.57163 11.228 4.52876C11.1605 4.42001 10.9496 4.15836 10.8618 4.07661C10.4594 3.70283 9.96323 3.44507 9.42627 3.32954C9.29802 3.30329 9.23876 3.29927 8.99951 3.29927C8.76026 3.29927 8.70025 3.30329 8.57275 3.32954C8.22178 3.40004 7.8688 3.54796 7.55908 3.75044C7.28762 3.93042 7.11737 4.07888 6.94189 4.29634C6.79564 4.47859 6.74211 4.56771 6.67236 4.72896C6.59292 4.90954 6.52618 4.98848 6.39209 5.0522C6.28334 5.10395 6.17682 5.11247 6.00732 5.08247C5.85273 5.05405 5.57439 5.05091 5.42529 5.07564C4.76253 5.18 4.16969 5.5708 3.74756 6.1811C3.31556 6.80285 3.12595 7.58708 3.23096 8.30708C3.29543 8.79248 3.50918 9.24596 3.84326 9.60396C3.9587 9.72917 4.01123 9.84934 4.01123 9.99556C4.00679 10.1443 3.94743 10.2866 3.84424 10.394C3.68304 10.571 3.52901 10.8948 3.43603 11.2592C3.21259 12.1329 3.27432 13.1571 3.59228 13.8471C3.6607 14.0004 3.75836 14.139 3.88037 14.2543C3.93948 14.3077 3.98885 14.3713 4.02588 14.4418C4.06636 14.5235 4.06884 14.538 4.06885 14.6615V14.7944L3.95849 15.0121C3.77252 15.3698 3.67221 15.6299 3.58447 15.9838C3.39172 16.7503 3.4125 17.5181 3.63525 17.9321L3.67334 18.0004H2.56494L2.55224 17.9516C2.46449 17.6163 2.44092 17.4116 2.44092 16.9916C2.43397 16.7428 2.45129 16.4937 2.49365 16.2485C2.56803 15.7643 2.70645 15.2921 2.90478 14.8442C2.92794 14.7906 2.94359 14.7439 2.93994 14.7387C2.92419 14.7282 2.79498 14.5291 2.7417 14.433C2.58047 14.1398 2.43601 13.6988 2.36474 13.2826C2.30551 12.9355 2.29834 12.8356 2.29834 12.3334C2.29834 11.8348 2.30666 11.7346 2.36963 11.3627C2.44987 10.8925 2.622 10.4029 2.82373 10.0639L2.85107 10.0151L2.75342 9.86958C2.45192 9.4181 2.27675 8.92428 2.20849 8.33931C2.17926 8.00045 2.18441 7.6594 2.22509 7.32173C2.32111 6.69029 2.56253 6.08913 2.93017 5.56685C3.13269 5.28171 3.37228 5.02472 3.64209 4.8022L3.78271 4.68794C3.78816 4.68142 3.77985 4.61148 3.76514 4.53267C3.69689 4.17195 3.64893 3.64963 3.64892 3.24165C3.64892 2.89457 3.68533 2.44166 3.73779 2.1147C3.87879 1.24995 4.21256 0.555205 4.64306 0.228955C4.79445 0.116458 4.96935 0.0397978 5.15478 0.00532196C5.30163 -0.00603237 5.4504 0.00390435 5.59424 0.0355954C6.25197 0.238839 6.74714 1.04399 6.9624 2.26118C6.99611 2.44104 7.02089 2.62273 7.03564 2.80513C7.03566 2.83192 7.04044 2.85466 7.04639 2.85493C7.08495 2.83857 7.12241 2.8189 7.15771 2.79634C7.73446 2.45509 8.37552 2.2729 8.99951 2.2729C9.64876 2.28002 10.2842 2.46031 10.8403 2.79536C10.8759 2.81797 10.9138 2.83763 10.9526 2.85396C10.9586 2.85368 10.9634 2.83098 10.9634 2.80415C10.9781 2.62167 11.0029 2.44015 11.0366 2.26021C11.2736 0.906455 11.8765 0.0466423 12.6235 0.00239228ZM8.79834 7.5522C9.01236 7.54687 9.22784 7.55482 9.44092 7.57564C10.5905 7.7205 11.5286 8.48129 11.7446 9.44868C11.7746 9.58055 11.7778 9.62447 11.7778 9.84712C11.7778 10.0663 11.7748 10.1138 11.7456 10.2387C11.7073 10.4112 11.6661 10.5213 11.5806 10.6908C11.2588 11.3238 10.5429 11.7748 9.71045 11.8686C9.48537 11.8933 8.51363 11.8933 8.28857 11.8686C7.25207 11.7516 6.45142 11.1087 6.25342 10.2387C6.22496 10.1136 6.22119 10.0664 6.22119 9.84614C6.22119 9.62424 6.22443 9.58055 6.25439 9.44868C6.40289 8.78268 6.89021 8.20775 7.59521 7.86275C7.82288 7.75446 8.06208 7.6717 8.3081 7.61665C8.44223 7.58968 8.51882 7.57918 8.79834 7.5522ZM8.70264 8.2563C8.33664 8.2953 7.93848 8.43932 7.63623 8.64107C7.37535 8.81574 7.11138 9.1183 7.00928 9.36275C6.92531 9.56291 6.8843 9.80076 6.90674 9.94478C6.95549 10.253 7.04565 10.4447 7.24365 10.6547C7.49065 10.9147 7.82838 11.0845 8.25635 11.1645C8.38155 11.1885 8.4596 11.1912 8.89599 11.1957C9.56566 11.2002 9.75311 11.1837 10.0395 11.0922C10.2222 11.0279 10.3959 10.9403 10.5561 10.8315C10.8111 10.6425 11 10.3724 11.0601 10.1137C11.0998 9.9405 11.1073 9.85962 11.0923 9.75239C11.06 9.5184 10.9902 9.3254 10.8657 9.13716C10.7652 8.98416 10.5291 8.75207 10.3618 8.64107C10.0371 8.42994 9.66769 8.29755 9.28271 8.25532C9.14252 8.24183 8.84296 8.24132 8.70264 8.2563ZM9.31396 9.17329C9.36046 9.17092 9.40705 9.17905 9.44971 9.19771C9.51424 9.22857 9.56381 9.28385 9.58838 9.35103C9.61292 9.41833 9.61014 9.49281 9.58056 9.55806C9.54826 9.62931 9.4401 9.73344 9.3374 9.79341C9.24086 9.84957 9.23398 9.8779 9.27295 10.06C9.31935 10.278 9.28636 10.3921 9.15967 10.4535C9.11041 10.4766 9.08482 10.4797 8.9624 10.476C8.82842 10.4723 8.81874 10.4708 8.77099 10.4321C8.71624 10.3886 8.66507 10.2971 8.66357 10.2416C8.66371 10.2201 8.67601 10.1457 8.69092 10.0756C8.70517 10.0029 8.7154 9.92152 8.7124 9.89302C8.70865 9.84526 8.70305 9.83858 8.62451 9.79146C8.47751 9.70221 8.38311 9.59304 8.35986 9.48579C8.339 9.38606 8.40816 9.2519 8.50635 9.19868C8.55178 9.17892 8.6015 9.17115 8.65088 9.17525C8.74974 9.17376 8.77989 9.18437 8.94385 9.28169L8.98389 9.3061L9.04736 9.26607C9.15836 9.19557 9.21946 9.17329 9.31396 9.17329ZM5.36767 7.69868C5.48394 7.66849 5.60603 7.6671 5.72314 7.6938C5.81474 7.7196 5.90011 7.76463 5.97314 7.82564C6.04602 7.88655 6.10532 7.96195 6.14697 8.04732L6.20166 8.15864L6.20068 8.31392C6.20068 8.45848 6.19792 8.47671 6.15674 8.57857C6.09974 8.72332 6.04299 8.8125 5.93799 8.9145C5.75799 9.093 5.55519 9.13907 5.28369 9.06782C5.06786 9.00991 4.87817 8.79942 4.83545 8.56782C4.82161 8.43623 4.83692 8.30316 4.88037 8.17817C4.96808 7.93902 5.13907 7.77073 5.36767 7.69868ZM12.27 7.69478C12.3851 7.66983 12.5045 7.66986 12.6196 7.69478C12.915 7.78101 13.1145 8.02797 13.1626 8.36763C13.1863 8.49532 13.1655 8.62781 13.103 8.74165C13.0638 8.8194 13.0094 8.88864 12.9428 8.94478C12.8763 9.00089 12.7985 9.04234 12.7153 9.06782C12.4438 9.13907 12.241 9.093 12.061 8.9145C11.9568 8.8125 11.8993 8.72331 11.8423 8.57857C11.8011 8.47672 11.7983 8.45848 11.7983 8.31392L11.7974 8.15864L11.852 8.04732C11.8933 7.96272 11.9519 7.88726 12.0239 7.82661C12.0959 7.76607 12.1797 7.72103 12.27 7.69478ZM5.37451 1.05708C5.31604 1.01061 5.30752 1.00986 5.25732 1.04732C5.04507 1.20482 4.82786 1.73952 4.73486 2.33052C4.65023 2.90783 4.64644 3.49429 4.72314 4.07271C4.73737 4.17827 4.74138 4.18537 4.76611 4.18013L4.94385 4.13521C5.17482 4.07296 5.4167 4.04244 5.65967 4.04243H5.86865L5.95654 3.90864L6.04639 3.77778L6.04541 3.42134C6.0424 3.06151 6.01945 2.7653 5.96924 2.49165C5.95799 2.43094 5.94324 2.35213 5.93799 2.31685C5.93124 2.28089 5.9087 2.18278 5.88623 2.0981C5.76698 1.62635 5.56051 1.20483 5.37451 1.05708ZM12.7436 1.04732C12.692 1.00916 12.6829 1.01062 12.6245 1.05708C12.44 1.20481 12.2325 1.62603 12.1147 2.09321C12.0037 2.52971 11.9566 2.92057 11.9536 3.42232L11.9526 3.77778L12.0415 3.90864L12.1304 4.04243H12.3393C12.5808 4.04217 12.8217 4.07321 13.0551 4.13521L13.2329 4.18013C13.2576 4.18537 13.2616 4.17752 13.2758 4.07271C13.3868 3.23496 13.3267 2.35383 13.1167 1.71333C13.0117 1.39257 12.871 1.14177 12.7436 1.04732Z" fill="#D9D9D9"/>
</g>
<defs>
<clipPath id="clip0_5256_2570">
<rect width="18" height="18" fill="white"/>
</clipPath>
</defs>
</svg>
