<svg width="18" height="20" viewBox="0 0 18 20" fill="none" xmlns="http://www.w3.org/2000/svg">
<path d="M16.926 4.69136C15.8967 4.47209 14.9654 3.94258 14.266 3.17881C13.5666 2.41505 13.1349 1.45629 13.033 0.440127V0H9.47033V13.674C9.47106 14.2807 9.27468 14.8723 8.90903 15.3649C8.54337 15.8575 8.02698 16.2262 7.43298 16.4187C6.83899 16.6113 6.19752 16.6179 5.59943 16.4376C5.00134 16.2574 4.47696 15.8994 4.10057 15.4145C3.76335 14.9852 3.55686 14.4731 3.50445 13.936C3.45203 13.399 3.55579 12.8585 3.80397 12.3756C4.05215 11.8927 4.43487 11.4867 4.90883 11.2035C5.3828 10.9203 5.92911 10.7712 6.48598 10.7731C6.79388 10.7725 7.10016 10.8163 7.39471 10.9032V7.40214C7.05217 7.36161 6.70707 7.3449 6.36206 7.35213C5.0912 7.38502 3.85781 7.77618 2.81294 8.47772C1.76807 9.17926 0.957074 10.1607 0.479254 11.3019C0.00143407 12.4431 -0.122467 13.6945 0.122723 14.9029C0.367913 16.1112 0.971552 17.2241 1.85972 18.1052C2.76999 19.0017 3.93482 19.6158 5.20622 19.8695C6.47761 20.1233 7.79818 20.0052 9.00012 19.5302C10.2021 19.0553 11.2311 18.245 11.9566 17.2022C12.682 16.1595 13.071 14.9314 13.0743 13.674V6.67193C14.5112 7.66617 16.2342 8.19802 18 8.19237V4.79139C17.6532 4.79172 17.3072 4.75821 16.9674 4.69136H16.926Z" fill="white"/>
</svg>
