<svg width="20" height="20" viewBox="0 0 20 20" fill="none" xmlns="http://www.w3.org/2000/svg">
<path d="M16.0583 4.44165C14.95 3.92498 13.75 3.54998 12.5 3.33331C12.478 3.33363 12.4571 3.34261 12.4417 3.35831C12.2917 3.63331 12.1167 3.99165 12 4.26665C10.6742 4.06677 9.32584 4.06677 8 4.26665C7.88333 3.98331 7.70833 3.63331 7.55 3.35831C7.54167 3.34165 7.51667 3.33331 7.49167 3.33331C6.24167 3.54998 5.05 3.92498 3.93333 4.44165C3.925 4.44165 3.91667 4.44998 3.90833 4.45831C1.64167 7.84998 1.01667 11.15 1.325 14.4166C1.325 14.4333 1.33333 14.45 1.35 14.4583C2.85 15.5583 4.29167 16.225 5.71667 16.6666C5.74167 16.675 5.76667 16.6666 5.775 16.65C6.10833 16.1916 6.40833 15.7083 6.66667 15.2C6.68333 15.1666 6.66667 15.1333 6.63333 15.125C6.15833 14.9416 5.70833 14.725 5.26667 14.475C5.23333 14.4583 5.23333 14.4083 5.25833 14.3833C5.35 14.3166 5.44167 14.2416 5.53333 14.175C5.55 14.1583 5.575 14.1583 5.59167 14.1666C8.45833 15.475 11.55 15.475 14.3833 14.1666C14.4 14.1583 14.425 14.1583 14.4417 14.175C14.5333 14.25 14.625 14.3166 14.7167 14.3916C14.75 14.4166 14.75 14.4666 14.7083 14.4833C14.275 14.7416 13.8167 14.95 13.3417 15.1333C13.3083 15.1416 13.3 15.1833 13.3083 15.2083C13.575 15.7166 13.875 16.2 14.2 16.6583C14.225 16.6666 14.25 16.675 14.275 16.6666C15.7083 16.225 17.15 15.5583 18.65 14.4583C18.6667 14.45 18.675 14.4333 18.675 14.4166C19.0417 10.6416 18.0667 7.36665 16.0917 4.45831C16.0833 4.44998 16.075 4.44165 16.0583 4.44165ZM7.1 12.425C6.24167 12.425 5.525 11.6333 5.525 10.6583C5.525 9.68331 6.225 8.89165 7.1 8.89165C7.98333 8.89165 8.68333 9.69165 8.675 10.6583C8.675 11.6333 7.975 12.425 7.1 12.425ZM12.9083 12.425C12.05 12.425 11.3333 11.6333 11.3333 10.6583C11.3333 9.68331 12.0333 8.89165 12.9083 8.89165C13.7917 8.89165 14.4917 9.69165 14.4833 10.6583C14.4833 11.6333 13.7917 12.425 12.9083 12.425Z" fill="white"/>
</svg>
