<svg width="21" height="21" viewBox="0 0 21 21" fill="none" xmlns="http://www.w3.org/2000/svg">
<g clip-path="url(#clip0_1120_9858)">
<path d="M19.5924 8.62232C19.7954 8.62232 19.9462 8.66621 20.045 8.75398C20.1492 8.84175 20.1986 8.95694 20.1931 9.09957C20.1931 9.23671 20.1382 9.38208 20.0285 9.53568L18.1113 12.1935C17.9796 12.38 17.8233 12.4732 17.6423 12.4732C17.4612 12.4678 17.3049 12.3745 17.1732 12.1935L15.2642 9.53568C15.1545 9.38208 15.0969 9.23671 15.0914 9.09957C15.0914 8.95694 15.1408 8.84175 15.2395 8.75398C15.3438 8.66621 15.4946 8.62232 15.6921 8.62232H19.5924ZM10.0968 3.27382C9.15322 3.27382 8.26455 3.45759 7.43073 3.82513C6.59692 4.19267 5.87555 4.6946 5.26665 5.33094C5.04722 5.5339 4.83328 5.6299 4.62483 5.61893C4.41637 5.60248 4.24083 5.52842 4.09821 5.39676C3.93364 5.25414 3.83764 5.0594 3.81021 4.81254C3.78827 4.56569 3.88427 4.34078 4.09821 4.13781C4.85523 3.35336 5.74938 2.73349 6.78068 2.27818C7.81747 1.82287 8.92283 1.59521 10.0968 1.59521C11.2707 1.59521 12.3706 1.81464 13.3964 2.25349C14.4277 2.69234 15.3301 3.30125 16.1035 4.08021C16.8825 4.85917 17.4914 5.7643 17.9303 6.7956C18.3746 7.82142 18.5968 8.92403 18.5968 10.1034C18.5968 10.3338 18.5145 10.5313 18.3499 10.6959C18.1908 10.855 17.9961 10.9345 17.7657 10.9345C17.5298 10.9345 17.3296 10.8522 17.165 10.6877C17.0004 10.5231 16.9182 10.3256 16.9182 10.0952C16.9182 9.15717 16.7426 8.27398 16.3915 7.44565C16.0404 6.61732 15.5495 5.89321 14.9186 5.27334C14.2933 4.64797 13.5692 4.15975 12.7463 3.80867C11.9235 3.4521 11.0403 3.27382 10.0968 3.27382ZM0.609339 11.5681C0.400885 11.5681 0.244544 11.5242 0.140317 11.4365C0.0415754 11.3487 -0.00505256 11.2335 0.000433077 11.0909C0.00591872 10.9482 0.0635179 10.8029 0.173231 10.6548L2.08223 7.98873C2.21937 7.8077 2.37846 7.71719 2.55948 7.71719C2.74051 7.71719 2.89411 7.8077 3.02028 7.98873L4.93751 10.6548C5.04174 10.8083 5.09385 10.9565 5.09385 11.0991C5.09934 11.2362 5.04997 11.3487 4.94574 11.4365C4.847 11.5242 4.69888 11.5681 4.5014 11.5681H0.609339ZM10.0968 16.9166C11.0458 16.9166 11.9344 16.7328 12.7628 16.3653C13.5966 15.9978 14.318 15.4958 14.9269 14.8595C15.1518 14.6565 15.3657 14.5633 15.5687 14.5797C15.7771 14.5907 15.9527 14.6593 16.0953 14.7854C16.2654 14.9281 16.3614 15.1255 16.3833 15.3779C16.4052 15.6247 16.3092 15.8497 16.0953 16.0526C15.3438 16.8316 14.4496 17.4487 13.4128 17.904C12.376 18.3648 11.2707 18.5952 10.0968 18.5952C8.92283 18.5952 7.82296 18.3758 6.79714 17.9369C5.77133 17.4981 4.86894 16.8892 4.08998 16.1102C3.31102 15.3313 2.69937 14.4289 2.25503 13.4031C1.81618 12.3718 1.59675 11.2664 1.59675 10.087C1.60224 9.85659 1.68452 9.66185 1.84361 9.50277C2.00818 9.3382 2.20292 9.25591 2.42783 9.25591C2.66371 9.25591 2.86394 9.3382 3.02851 9.50277C3.19308 9.66185 3.27536 9.85933 3.27536 10.0952C3.27536 11.0333 3.4509 11.9164 3.80198 12.7448C4.15855 13.5676 4.64951 14.2917 5.27488 14.9171C5.90024 15.5425 6.62434 16.0307 7.44719 16.3818C8.27004 16.7383 9.15322 16.9166 10.0968 16.9166Z" fill="white"/>
</g>
<defs>
<clipPath id="clip0_1120_9858">
<rect width="20.19" height="20.19" fill="white"/>
</clipPath>
</defs>
</svg>
