<svg width="36" height="36" viewBox="0 0 36 36" fill="none" xmlns="http://www.w3.org/2000/svg">
<g clip-path="url(#clip0_6035_5146)">
<path d="M17.667 5C23.4258 5.00017 28.1477 9.42591 28.624 15.0615C32.4062 15.5328 35.333 18.7571 35.333 22.667C35.3328 26.9009 31.9009 30.3328 27.667 30.333H24.333C23.7809 30.3328 23.333 29.8852 23.333 29.333C23.3332 28.781 23.781 28.3332 24.333 28.333H27.667C30.7963 28.3328 33.3328 25.7963 33.333 22.667C33.333 19.5375 30.7965 17.0002 27.667 17C27.1147 17 26.667 16.5523 26.667 16C26.667 11.0295 22.6374 7.00018 17.667 7C13.7247 7 10.372 9.53537 9.15527 13.0674C9.03216 13.4248 8.71741 13.6819 8.34277 13.7324C4.7615 14.2153 2 17.2862 2 21C2 25.05 5.28307 28.3328 9.33301 28.333H11C11.5522 28.333 11.9998 28.7809 12 29.333C12 29.8853 11.5523 30.333 11 30.333H9.33301C4.1785 30.3328 1.93273e-07 26.1545 0 21C0 16.4809 3.21133 12.7151 7.47656 11.8535C9.11341 7.83501 13.0576 5 17.667 5ZM17.0352 16.8906C17.4279 16.5702 18.0079 16.5938 18.374 16.96L22.54 21.126C22.9306 21.5165 22.9306 22.1495 22.54 22.54C22.1495 22.9306 21.5165 22.9306 21.126 22.54L18.667 20.0811V29.333C18.667 29.8852 18.2191 30.3328 17.667 30.333C17.1147 30.333 16.667 29.8853 16.667 29.333V20.0801L14.207 22.54C13.8165 22.9306 13.1835 22.9306 12.793 22.54C12.4026 22.1495 12.4025 21.5164 12.793 21.126L16.96 16.96L17.0352 16.8906Z" fill="#D9D9D9"/>
</g>
<defs>
<clipPath id="clip0_6035_5146">
<rect width="35.33" height="35.33" fill="white"/>
</clipPath>
</defs>
</svg>
