<svg width="70" height="70" viewBox="0 0 70 70" fill="none" xmlns="http://www.w3.org/2000/svg">
<path d="M25.123 0.898438H44.877C49.2122 0.898438 52.4337 0.898947 54.9854 1.10742C57.3723 1.30244 59.1345 1.67724 60.6396 2.38281L60.9375 2.52832C63.5752 3.8724 65.7506 5.96705 67.1934 8.54199L67.4717 9.0625C68.2719 10.6331 68.6846 12.4687 68.8926 15.0146C69.1011 17.5663 69.1016 20.7878 69.1016 25.123V44.877C69.1016 49.2122 69.1011 52.4337 68.8926 54.9854C68.6976 57.3723 68.3228 59.1345 67.6172 60.6396L67.4717 60.9375C66.1276 63.5752 64.033 65.7506 61.458 67.1934L60.9375 67.4717C59.3669 68.2719 57.5313 68.6846 54.9854 68.8926C52.4337 69.1011 49.2122 69.1016 44.877 69.1016H25.123C20.7878 69.1016 17.5663 69.1011 15.0146 68.8926C12.6277 68.6976 10.8655 68.3228 9.36035 67.6172L9.0625 67.4717C6.4248 66.1276 4.24944 64.033 2.80664 61.458L2.52832 60.9375C1.72808 59.3669 1.31543 57.5313 1.10742 54.9854C0.898947 52.4337 0.898438 49.2122 0.898438 44.877V25.123C0.898438 20.7878 0.898947 17.5663 1.10742 15.0146C1.30244 12.6277 1.67724 10.8655 2.38281 9.36035L2.52832 9.0625C3.8724 6.4248 5.96705 4.24944 8.54199 2.80664L9.0625 2.52832C10.6331 1.72808 12.4687 1.31543 15.0146 1.10742C17.5663 0.898947 20.7878 0.898438 25.123 0.898438Z" fill="url(#paint0_linear_7938_2226)" stroke="#282A2F"/>
<g filter="url(#filter0_d_7938_2226)">
<path fill-rule="evenodd" clip-rule="evenodd" d="M34.3576 14.0085C31.3572 13.8834 28.7854 16.3142 28.7854 19.4557C28.7854 22.5972 31.25 24.9429 34.5076 24.9429H35.8741C37.3581 24.9429 44.4306 26.421 44.6449 34.9938C44.6449 40.2323 40.2383 44.4785 34.9999 44.4785C30.0564 44.4785 25.9992 40.8875 25.2491 36.2797L25.142 35.3772C25.142 32.2654 22.8272 29.7428 19.6856 29.7428C16.5441 29.7428 13.9974 32.2654 13.9974 35.3772V36.7083C14.7475 48.1744 23.9898 55.9961 34.9999 55.9961C46.5993 55.9961 56.0026 46.5929 56.0026 34.9934C56.0026 23.6868 47.0682 14.4669 35.8741 14.0085L34.3576 14.0085Z" fill="url(#paint1_linear_7938_2226)"/>
</g>
<defs>
<filter id="filter0_d_7938_2226" x="6.27084" y="9.30078" width="57.4583" height="57.4453" filterUnits="userSpaceOnUse" color-interpolation-filters="sRGB">
<feFlood flood-opacity="0" result="BackgroundImageFix"/>
<feColorMatrix in="SourceAlpha" type="matrix" values="0 0 0 0 0 0 0 0 0 0 0 0 0 0 0 0 0 0 127 0" result="hardAlpha"/>
<feOffset dy="3.02344"/>
<feGaussianBlur stdDeviation="3.86328"/>
<feComposite in2="hardAlpha" operator="out"/>
<feColorMatrix type="matrix" values="0 0 0 0 0 0 0 0 0 0 0 0 0 0 0 0 0 0 1 0"/>
<feBlend mode="normal" in2="BackgroundImageFix" result="effect1_dropShadow_7938_2226"/>
<feBlend mode="normal" in="SourceGraphic" in2="effect1_dropShadow_7938_2226" result="shape"/>
</filter>
<linearGradient id="paint0_linear_7938_2226" x1="35" y1="0.398437" x2="35" y2="56.458" gradientUnits="userSpaceOnUse">
<stop stop-color="#32353A"/>
<stop offset="1" stop-color="#050506"/>
</linearGradient>
<linearGradient id="paint1_linear_7938_2226" x1="35" y1="14.0039" x2="35" y2="55.9961" gradientUnits="userSpaceOnUse">
<stop stop-color="white"/>
<stop offset="1" stop-color="#EBEDF2"/>
</linearGradient>
</defs>
</svg>
