<svg width="20" height="20" viewBox="0 0 20 20" fill="none" xmlns="http://www.w3.org/2000/svg">
<g id="icon/settings-cog">
<path id="Icon (Stroke)" fill-rule="evenodd" clip-rule="evenodd" d="M10 3.00739C9.76805 3.00739 9.55145 3.12331 9.42279 3.3163L9.09861 3.80257C8.44606 4.7814 7.25572 5.25408 6.10944 4.98955L5.78966 4.91576C5.54484 4.85926 5.28819 4.93287 5.11053 5.11053C4.93287 5.28819 4.85926 5.54484 4.91576 5.78966L4.98955 6.10944C5.25408 7.25572 4.78141 8.44606 3.80257 9.09861L3.3163 9.42279C3.12331 9.55145 3.00739 9.76805 3.00739 10C3.00739 10.2319 3.12331 10.4485 3.3163 10.5772L3.80257 10.9014C4.78141 11.5539 5.25408 12.7443 4.98955 13.8906L4.91576 14.2103C4.85926 14.4552 4.93287 14.7118 5.11053 14.8895C5.28819 15.0671 5.54484 15.1407 5.78966 15.0842L6.10944 15.0104C7.25572 14.7459 8.44606 15.2186 9.09861 16.1974L9.42279 16.6837C9.55145 16.8767 9.76805 16.9926 10 16.9926C10.2319 16.9926 10.4485 16.8767 10.5772 16.6837L10.9014 16.1974C11.5539 15.2186 12.7443 14.7459 13.8906 15.0104L14.2103 15.0842C14.4552 15.1407 14.7118 15.0671 14.8895 14.8895C15.0671 14.7118 15.1407 14.4552 15.0842 14.2103L15.0104 13.8906C14.7459 12.7443 15.2186 11.5539 16.1974 10.9014L16.6837 10.5772C16.8767 10.4485 16.9926 10.2319 16.9926 10C16.9926 9.76805 16.8767 9.55145 16.6837 9.42279L16.1974 9.09861C15.2186 8.44606 14.7459 7.25572 15.0104 6.10944L15.0842 5.78966C15.1407 5.54484 15.0671 5.28819 14.8895 5.11053C14.7118 4.93287 14.4552 4.85926 14.2103 4.91576L13.8906 4.98955C12.7443 5.25408 11.5539 4.78141 10.9014 3.80257L10.5772 3.3163C10.4485 3.12331 10.2319 3.00739 10 3.00739ZM8.16857 2.48015C8.5768 1.86781 9.26405 1.5 10 1.5C10.7359 1.5 11.4232 1.86781 11.8314 2.48015L12.1556 2.96642C12.4604 3.42356 13.0163 3.6443 13.5516 3.52076L13.8714 3.44697C14.6226 3.27361 15.4102 3.49948 15.9554 4.04464C16.5005 4.58981 16.7264 5.37737 16.553 6.12861L16.4792 6.44839C16.3557 6.98373 16.5764 7.53963 17.0336 7.84439L17.5198 8.16857C18.1322 8.5768 18.5 9.26405 18.5 10C18.5 10.7359 18.1322 11.4232 17.5198 11.8314L17.0336 12.1556C16.5764 12.4604 16.3557 13.0163 16.4792 13.5516L16.553 13.8714C16.7264 14.6226 16.5005 15.4102 15.9554 15.9554C15.4102 16.5005 14.6226 16.7264 13.8714 16.553L13.5516 16.4792C13.0163 16.3557 12.4604 16.5764 12.1556 17.0336L11.8314 17.5198C11.4232 18.1322 10.7359 18.5 10 18.5C9.26405 18.5 8.5768 18.1322 8.16857 17.5198L7.84439 17.0336C7.53963 16.5764 6.98373 16.3557 6.44839 16.4792L6.12861 16.553C5.37737 16.7264 4.58981 16.5005 4.04464 15.9554C3.49948 15.4102 3.27361 14.6226 3.44697 13.8714L3.52076 13.5516C3.6443 13.0163 3.42356 12.4604 2.96642 12.1556L2.48015 11.8314C1.86781 11.4232 1.5 10.7359 1.5 10C1.5 9.26405 1.86781 8.5768 2.48015 8.16857L2.96642 7.84439C3.42356 7.53963 3.6443 6.98373 3.52076 6.44839L3.44697 6.12861C3.27361 5.37737 3.49947 4.58981 4.04464 4.04464C4.58981 3.49947 5.37737 3.27361 6.12861 3.44697L6.44839 3.52076C6.98373 3.6443 7.53963 3.42356 7.84439 2.96642L8.16857 2.48015ZM10 8.45074C9.14437 8.45074 8.45074 9.14437 8.45074 10C8.45074 10.8556 9.14437 11.5493 10 11.5493C10.8556 11.5493 11.5493 10.8556 11.5493 10C11.5493 9.14437 10.8556 8.45074 10 8.45074ZM6.94335 10C6.94335 8.31186 8.31186 6.94335 10 6.94335C11.6881 6.94335 13.0567 8.31186 13.0567 10C13.0567 11.6881 11.6881 13.0567 10 13.0567C8.31186 13.0567 6.94335 11.6881 6.94335 10Z" fill="white"/>
</g>
</svg>
