<svg width="20" height="20" viewBox="0 0 20 20" fill="none" xmlns="http://www.w3.org/2000/svg">
<path d="M10 0C11.8079 2.01721e-09 13.355 0.0952425 14.6445 0.381836C15.9493 0.671915 17.0729 1.17642 17.9482 2.05176C18.8236 2.9271 19.3281 4.05067 19.6182 5.35547C19.9048 6.64502 20 8.19206 20 10C20 10.7569 19.3868 11.3701 18.6299 11.3701C17.8729 11.3701 17.2598 10.757 17.2598 10C17.2598 8.25483 17.1634 6.9459 16.9424 5.95117C16.7248 4.97203 16.4043 4.38285 16.0107 3.98926C15.6171 3.59566 15.028 3.27524 14.0488 3.05762C13.0541 2.83659 11.7452 2.74023 10 2.74023C8.25483 2.74023 6.9459 2.83659 5.95117 3.05762C4.97203 3.27524 4.38285 3.59566 3.98926 3.98926C3.59566 4.38285 3.27524 4.97203 3.05762 5.95117C2.83659 6.9459 2.74023 8.25483 2.74023 10C2.74023 11.7452 2.83659 13.0541 3.05762 14.0488C3.27524 15.028 3.59566 15.6171 3.98926 16.0107C4.38285 16.4043 4.97203 16.7248 5.95117 16.9424C6.9459 17.1634 8.25483 17.2598 10 17.2598C10.757 17.2598 11.3701 17.8729 11.3701 18.6299C11.3701 19.3868 10.7569 20 10 20C8.19206 20 6.64502 19.9048 5.35547 19.6182C4.05067 19.3281 2.9271 18.8236 2.05176 17.9482C1.17642 17.0729 0.671915 15.9493 0.381836 14.6445C0.0952425 13.355 2.01724e-09 11.8079 0 10C0 8.19206 0.0952425 6.64503 0.381836 5.35547C0.671915 4.05067 1.17642 2.9271 2.05176 2.05176C2.9271 1.17642 4.05067 0.671915 5.35547 0.381836C6.64503 0.0952425 8.19206 0 10 0ZM9.38965 10.8711C9.09546 9.95856 9.95856 9.09545 10.8711 9.38965L11.3184 9.53418C11.9616 9.74155 12.5465 10.0993 13.0244 10.5771L19.334 16.8867C20.0098 17.5625 20.0098 18.6582 19.334 19.334C18.6582 20.0097 17.5625 20.0097 16.8867 19.334L10.5771 13.0244C10.0993 12.5465 9.74155 11.9616 9.53418 11.3184L9.38965 10.8711Z" fill="black"/>
</svg>
