<svg width="16" height="17" viewBox="0 0 16 17" fill="none" xmlns="http://www.w3.org/2000/svg">
<path d="M0 8C0 6.82179 0.955126 5.86667 2.13333 5.86667C3.31154 5.86667 4.26667 6.82179 4.26667 8C4.26667 10.0619 5.93814 11.7333 8 11.7333C10.0619 11.7333 11.7333 10.0619 11.7333 8C11.7333 5.93814 10.0619 4.26667 8 4.26667C6.82179 4.26667 5.86667 3.31154 5.86667 2.13333C5.86667 0.955126 6.82179 0 8 0C12.4183 0 16 3.58172 16 8C16 12.4183 12.4183 16 8 16C3.58172 16 0 12.4183 0 8Z" fill="white"/>
</svg>
