<svg width="24" height="24" viewBox="0 0 24 24" fill="none" xmlns="http://www.w3.org/2000/svg">
<path d="M2.99403 19.5999H21.006C22.9892 19.5999 24 18.5993 24 16.6176V7.37255C24 5.40041 22.9892 4.3999 21.006 4.3999H2.99403C0.991655 4.3999 0 5.39079 0 7.37255V16.6176C0 18.5993 0.991655 19.5999 2.99403 19.5999ZM3.0131 18.051C2.05959 18.051 1.53516 17.5315 1.53516 16.531V7.45913C1.53516 6.45863 2.05959 5.94876 3.0131 5.94876H20.9773C21.9213 5.94876 22.4648 6.45863 22.4648 7.45913V16.531C22.4648 17.5315 21.9213 18.051 20.9773 18.051H3.0131ZM3.87126 9.75837H4.7485C5.01548 9.75837 5.17758 9.59483 5.17758 9.33507V8.45002C5.17758 8.18065 5.01548 8.01711 4.7485 8.01711H3.87126C3.61382 8.01711 3.45172 8.18065 3.45172 8.45002V9.33507C3.45172 9.59483 3.61382 9.75837 3.87126 9.75837ZM6.94158 9.75837H7.81882C8.07626 9.75837 8.23835 9.59483 8.23835 9.33507V8.45002C8.23835 8.18065 8.07626 8.01711 7.81882 8.01711H6.94158C6.67459 8.01711 6.5125 8.18065 6.5125 8.45002V9.33507C6.5125 9.59483 6.67459 9.75837 6.94158 9.75837ZM10.0119 9.75837H10.8796C11.1466 9.75837 11.3087 9.59483 11.3087 9.33507V8.45002C11.3087 8.18065 11.1466 8.01711 10.8796 8.01711H10.0119C9.74491 8.01711 9.58282 8.18065 9.58282 8.45002V9.33507C9.58282 9.59483 9.74491 9.75837 10.0119 9.75837ZM13.0727 9.75837H13.9499C14.2169 9.75837 14.379 9.59483 14.379 9.33507V8.45002C14.379 8.18065 14.2169 8.01711 13.9499 8.01711H13.0727C12.8152 8.01711 12.6531 8.18065 12.6531 8.45002V9.33507C12.6531 9.59483 12.8152 9.75837 13.0727 9.75837ZM16.143 9.75837H17.0202C17.2777 9.75837 17.4398 9.59483 17.4398 9.33507V8.45002C17.4398 8.18065 17.2777 8.01711 17.0202 8.01711H16.143C15.876 8.01711 15.7139 8.18065 15.7139 8.45002V9.33507C15.7139 9.59483 15.876 9.75837 16.143 9.75837ZM19.2133 9.75837H20.081C20.348 9.75837 20.5101 9.59483 20.5101 9.33507V8.45002C20.5101 8.18065 20.348 8.01711 20.081 8.01711H19.2133C18.9463 8.01711 18.7842 8.18065 18.7842 8.45002V9.33507C18.7842 9.59483 18.9463 9.75837 19.2133 9.75837ZM3.87126 12.8561H4.7485C5.01548 12.8561 5.17758 12.6925 5.17758 12.4232V11.5477C5.17758 11.2784 5.01548 11.1148 4.7485 11.1148H3.87126C3.61382 11.1148 3.45172 11.2784 3.45172 11.5477V12.4232C3.45172 12.6925 3.61382 12.8561 3.87126 12.8561ZM6.94158 12.8561H7.81882C8.07626 12.8561 8.23835 12.6925 8.23835 12.4232V11.5477C8.23835 11.2784 8.07626 11.1148 7.81882 11.1148H6.94158C6.67459 11.1148 6.5125 11.2784 6.5125 11.5477V12.4232C6.5125 12.6925 6.67459 12.8561 6.94158 12.8561ZM10.0119 12.8561H10.8796C11.1466 12.8561 11.3087 12.6925 11.3087 12.4232V11.5477C11.3087 11.2784 11.1466 11.1148 10.8796 11.1148H10.0119C9.74491 11.1148 9.58282 11.2784 9.58282 11.5477V12.4232C9.58282 12.6925 9.74491 12.8561 10.0119 12.8561ZM13.0727 12.8561H13.9499C14.2169 12.8561 14.379 12.6925 14.379 12.4232V11.5477C14.379 11.2784 14.2169 11.1148 13.9499 11.1148H13.0727C12.8152 11.1148 12.6531 11.2784 12.6531 11.5477V12.4232C12.6531 12.6925 12.8152 12.8561 13.0727 12.8561ZM16.143 12.8561H17.0202C17.2777 12.8561 17.4398 12.6925 17.4398 12.4232V11.5477C17.4398 11.2784 17.2777 11.1148 17.0202 11.1148H16.143C15.876 11.1148 15.7139 11.2784 15.7139 11.5477V12.4232C15.7139 12.6925 15.876 12.8561 16.143 12.8561ZM19.2133 12.8561H20.081C20.348 12.8561 20.5101 12.6925 20.5101 12.4232V11.5477C20.5101 11.2784 20.348 11.1148 20.081 11.1148H19.2133C18.9463 11.1148 18.7842 11.2784 18.7842 11.5477V12.4232C18.7842 12.6925 18.9463 12.8561 19.2133 12.8561ZM3.87126 15.9538H4.7485C5.01548 15.9538 5.17758 15.7903 5.17758 15.5209V14.6358C5.17758 14.3761 5.01548 14.2125 4.7485 14.2125H3.87126C3.61382 14.2125 3.45172 14.3761 3.45172 14.6358V15.5209C3.45172 15.7903 3.61382 15.9538 3.87126 15.9538ZM7.03693 15.9538H16.9249C17.2491 15.9538 17.4398 15.7614 17.4398 15.4247V14.732C17.4398 14.4049 17.2491 14.2125 16.9249 14.2125H7.03693C6.70321 14.2125 6.5125 14.4049 6.5125 14.732V15.4247C6.5125 15.7614 6.70321 15.9538 7.03693 15.9538ZM19.2133 15.9538H20.081C20.348 15.9538 20.5101 15.7903 20.5101 15.5209V14.6358C20.5101 14.3761 20.348 14.2125 20.081 14.2125H19.2133C18.9463 14.2125 18.7842 14.3761 18.7842 14.6358V15.5209C18.7842 15.7903 18.9463 15.9538 19.2133 15.9538Z" fill="white"/>
</svg>
