<svg width="20" height="20" viewBox="0 0 20 20" fill="none" xmlns="http://www.w3.org/2000/svg">
<rect width="20" height="20" rx="5" fill="#FF2B2B"/>
<path d="M10 17C9.03356 17 8.12752 16.8166 7.28188 16.4497C6.43624 16.0872 5.69128 15.5861 5.04698 14.9463C4.40716 14.3065 3.90604 13.5638 3.54362 12.7181C3.18121 11.8725 3 10.9664 3 10C3 9.03356 3.18121 8.12752 3.54362 7.28188C3.90604 6.43624 4.40716 5.69351 5.04698 5.05369C5.69128 4.4094 6.43624 3.90604 7.28188 3.54362C8.12752 3.18121 9.03356 3 10 3C10.9664 3 11.8725 3.18121 12.7181 3.54362C13.5638 3.90604 14.3065 4.4094 14.9463 5.05369C15.5861 5.69351 16.0872 6.43624 16.4497 7.28188C16.8166 8.12752 17 9.03356 17 10C17 10.9664 16.8166 11.8725 16.4497 12.7181C16.0872 13.5638 15.5861 14.3065 14.9463 14.9463C14.3065 15.5861 13.5638 16.0872 12.7181 16.4497C11.8725 16.8166 10.9664 17 10 17ZM10 15.4631C10.7562 15.4631 11.4631 15.3221 12.1208 15.0403C12.783 14.7584 13.3624 14.3669 13.8591 13.8658C14.3602 13.3602 14.7517 12.7785 15.0336 12.1208C15.3199 11.4586 15.4631 10.7517 15.4631 10C15.4631 9.24385 15.3199 8.53691 15.0336 7.87919C14.7517 7.217 14.3602 6.63535 13.8591 6.13423C13.3624 5.63311 12.783 5.24161 12.1208 4.95973C11.4631 4.67785 10.7562 4.53691 10 4.53691C9.24385 4.53691 8.53468 4.67785 7.87248 4.95973C7.21477 5.24161 6.63535 5.63311 6.13423 6.13423C5.63311 6.63535 5.24161 7.217 4.95973 7.87919C4.67785 8.53691 4.53691 9.24385 4.53691 10C4.53691 10.7517 4.67785 11.4586 4.95973 12.1208C5.24161 12.7785 5.63311 13.3602 6.13423 13.8658C6.63535 14.3669 7.21477 14.7584 7.87248 15.0403C8.53468 15.3221 9.24385 15.4631 10 15.4631ZM10 12.6242C9.51678 12.6242 9.07383 12.5056 8.67114 12.2685C8.27293 12.0313 7.95526 11.7136 7.71812 11.3154C7.48098 10.9172 7.36242 10.4743 7.36242 9.98658C7.36242 9.50336 7.48098 9.06264 7.71812 8.66443C7.95526 8.26174 8.27293 7.94183 8.67114 7.7047C9.07383 7.46756 9.51678 7.34899 10 7.34899C10.4877 7.34899 10.9284 7.46756 11.3221 7.7047C11.7204 7.94183 12.038 8.26174 12.2752 8.66443C12.5168 9.06264 12.6376 9.50336 12.6376 9.98658C12.6376 10.4743 12.5168 10.9172 12.2752 11.3154C12.038 11.7136 11.7204 12.0313 11.3221 12.2685C10.9284 12.5056 10.4877 12.6242 10 12.6242Z" fill="white"/>
</svg>
