<svg width="18" height="18" viewBox="0 0 18 18" fill="none" xmlns="http://www.w3.org/2000/svg">
<path d="M17.8112 3.17503C17.6205 3.07629 17.5384 3.26446 17.4269 3.36005C17.3888 3.39089 17.3565 3.43096 17.3242 3.46796C17.0455 3.78249 16.72 3.98918 16.2946 3.96447C15.6727 3.92744 15.1418 4.13412 14.6724 4.63682C14.5727 4.01693 14.2413 3.64679 13.7367 3.40937C13.4727 3.28599 13.2058 3.16261 13.021 2.89428C12.8919 2.70313 12.8567 2.49032 12.7922 2.28059C12.7511 2.15416 12.71 2.02459 12.5721 2.00299C12.4225 1.97835 12.3639 2.1109 12.3052 2.222C12.0705 2.67538 11.9796 3.17499 11.9884 3.68077C12.0089 4.81883 12.4636 5.72549 13.367 6.37008C13.4697 6.44411 13.4961 6.51807 13.4639 6.62609C13.4022 6.84814 13.3289 7.064 13.2644 7.28605C13.2233 7.42795 13.1617 7.45879 13.018 7.39704C12.5222 7.17814 12.0939 6.85427 11.7155 6.46263C11.0731 5.80571 10.4923 5.08096 9.76781 4.51347C9.59768 4.38085 9.42752 4.25754 9.2515 4.14028C8.51229 3.38165 9.34832 2.75861 9.54192 2.68465C9.7443 2.60754 9.61232 2.34226 8.95817 2.34541C8.30401 2.34846 7.70562 2.57979 6.94296 2.88819C6.83151 2.93446 6.71413 2.96834 6.59386 2.9961C5.9016 2.85735 5.18291 2.82645 4.43197 2.91594C3.01807 3.08245 1.88877 3.78872 1.05862 4.99461C0.0613011 6.44411 -0.173361 8.09096 0.114114 9.80882C0.416257 11.6191 1.29037 13.118 2.63388 14.29C4.02725 15.5051 5.6318 16.1003 7.46221 15.9862C8.57397 15.9184 9.81185 15.7611 11.2081 14.512C11.5601 14.6971 11.9297 14.7711 12.5428 14.8266C13.0151 14.8728 13.4698 14.8019 13.8218 14.7249C14.3732 14.6015 14.3351 14.0617 14.1357 13.9631C12.5194 13.1674 12.8743 13.4912 12.5516 13.229C13.373 12.2021 14.6109 11.1349 15.0949 7.67769C15.133 7.40324 15.1007 7.2305 15.0949 7.00845C15.0919 6.87278 15.1213 6.82038 15.2679 6.80491C15.6727 6.75556 16.0658 6.63841 16.4266 6.42868C17.4738 5.82423 17.8962 4.83115 17.996 3.6407C18.0107 3.45872 17.993 3.27055 17.8112 3.17503ZM8.68542 13.889C7.11901 12.5876 6.3593 12.1589 6.0454 12.1774C5.75206 12.1959 5.80488 12.5506 5.86938 12.7819C5.93686 13.0101 6.02487 13.1674 6.14805 13.3678C6.23311 13.5004 6.29182 13.6978 6.06302 13.8459C5.55846 14.1759 4.68137 13.7348 4.64028 13.7133C3.61951 13.0779 2.76589 12.239 2.16452 11.0918C1.58371 9.98765 1.2464 8.80342 1.19064 7.53894C1.17597 7.23365 1.26104 7.12564 1.54851 7.07019C1.92691 6.99616 2.31706 6.9807 2.69546 7.03929C4.29419 7.28605 5.65525 8.04164 6.79631 9.23825C7.44751 9.91981 7.94031 10.7341 8.44782 11.5297C8.98754 12.3747 9.56835 13.1797 10.3076 13.8397C10.5686 14.071 10.7769 14.2468 10.9764 14.3763C10.375 14.4473 9.37183 14.4627 8.68542 13.889ZM9.43636 8.78491C9.43636 8.64921 9.53904 8.54129 9.66814 8.54129C9.69748 8.54129 9.72387 8.54739 9.74735 8.55663C9.77963 8.56902 9.80897 8.58753 9.83241 8.61522C9.8735 8.65845 9.89694 8.72009 9.89694 8.78487C9.89694 8.92058 9.7943 9.02849 9.66526 9.02849C9.53622 9.02849 9.43636 8.92061 9.43636 8.78491ZM11.7684 10.0494C11.6188 10.1142 11.4692 10.1696 11.3255 10.1758C11.1025 10.1881 10.8591 10.0925 10.7271 9.97533C10.5218 9.79335 10.3751 9.69163 10.3135 9.37396C10.2871 9.23825 10.3017 9.02852 10.3252 8.90829C10.378 8.64921 10.3194 8.4827 10.1463 8.33153C10.0055 8.20815 9.82655 8.17426 9.63 8.17426C9.55666 8.17426 9.48924 8.14031 9.43934 8.11255C9.35719 8.0694 9.28978 7.96145 9.35428 7.82883C9.37481 7.7857 9.47457 7.6808 9.49805 7.66232C9.76499 7.50191 10.073 7.55438 10.3575 7.67464C10.6216 7.78875 10.821 7.99848 11.1085 8.29453C11.4018 8.65225 11.4546 8.75102 11.6218 9.01928C11.7538 9.22901 11.8741 9.44487 11.9562 9.69163C12.0061 9.84585 11.9415 9.97228 11.7684 10.0494Z" fill="#D9D9D9"/>
</svg>
