<svg width="16" height="16" viewBox="13 8 46 46" fill="none" xmlns="http://www.w3.org/2000/svg">
<path d="M36 10C39.7967 10 43.0449 10.1999 45.7529 10.8018C48.4933 11.4109 50.854 12.4693 52.6924 14.3076C54.5307 16.146 55.5891 18.5067 56.1982 21.2471C56.8001 23.9551 57 27.2033 57 31C57 32.5896 55.7117 33.8779 54.1221 33.8779C52.5327 33.8777 51.2451 32.5895 51.2451 31C51.2451 27.3349 51.0433 24.5861 50.5791 22.4971C50.1221 20.4409 49.4486 19.2045 48.6221 18.3779C47.7955 17.5514 46.5591 16.8779 44.5029 16.4209C42.414 15.9567 39.6651 15.7549 36 15.7549C32.3349 15.7549 29.586 15.9567 27.4971 16.4209C25.4409 16.8779 24.2045 17.5514 23.3779 18.3779C22.5514 19.2045 21.8779 20.4409 21.4209 22.4971C20.9567 24.586 20.7549 27.3349 20.7549 31C20.7549 34.6651 20.9567 37.414 21.4209 39.5029C21.8779 41.5591 22.5514 42.7955 23.3779 43.6221C24.2045 44.4486 25.4409 45.1221 27.4971 45.5791C29.5861 46.0433 32.3349 46.2451 36 46.2451C37.5895 46.2451 38.8777 47.5327 38.8779 49.1221C38.8779 50.7117 37.5896 52 36 52C32.2033 52 28.9551 51.8001 26.2471 51.1982C23.5067 50.5891 21.146 49.5307 19.3076 47.6924C17.4693 45.854 16.4109 43.4933 15.8018 40.7529C15.1999 38.0449 15 34.7967 15 31C15 27.2033 15.1999 23.9551 15.8018 21.2471C16.4109 18.5067 17.4693 16.146 19.3076 14.3076C21.146 12.4693 23.5067 11.4109 26.2471 10.8018C28.9551 10.1999 32.2033 10 36 10ZM33.9443 30.4248C33.6501 29.5123 34.5123 28.6501 35.4248 28.9443L39.7432 30.3359C40.4534 30.5649 41.0993 30.9596 41.627 31.4873L55.6016 45.4619C57.0207 46.881 57.0207 49.1824 55.6016 50.6016C54.1825 52.0205 51.882 52.0205 50.4629 50.6016L36.4873 36.627C35.9596 36.0993 35.5649 35.4534 35.3359 34.7432L33.9443 30.4248Z" fill="white"/>
</svg>
