<svg width="16" height="17" viewBox="0 0 16 17" fill="none" xmlns="http://www.w3.org/2000/svg">
<path d="M8 1C12.1421 1 15.5 4.35786 15.5 8.5C15.5 12.6421 12.1421 16 8 16C3.85786 16 0.5 12.6421 0.5 8.5C0.5 7.59793 1.23172 6.86621 2.13379 6.86621C3.03564 6.86646 3.7666 7.59809 3.7666 8.5C3.7666 10.838 5.66199 12.7334 8 12.7334C10.338 12.7334 12.2334 10.838 12.2334 8.5C12.2334 6.16199 10.338 4.2666 8 4.2666C7.09809 4.2666 6.36646 3.53564 6.36621 2.63379C6.36621 1.73172 7.09793 1 8 1Z" stroke="white" stroke-linecap="round"/>
</svg>
