<svg width="12" height="12" viewBox="0 0 12 12" fill="none" xmlns="http://www.w3.org/2000/svg">
<path d="M6.2496 3.65127C6.5731 3.71071 6.84826 3.79987 7.07507 3.91874C7.30562 4.03762 7.50268 4.18064 7.66629 4.34782C8.12737 4.80474 8.43413 5.30996 8.58658 5.86348C8.73904 6.41699 8.73718 6.97051 8.58101 7.52403C8.42855 8.07383 8.12551 8.5772 7.67187 9.03413L5.7309 10.9733C5.27726 11.4265 4.77342 11.7293 4.21939 11.8816C3.66907 12.0376 3.1169 12.0394 2.56286 11.8871C2.00884 11.7348 1.49942 11.4265 1.03463 10.9621C0.577273 10.5052 0.270509 9.99999 0.114339 9.44648C-0.0381131 8.89296 -0.0381131 8.3413 0.114339 7.7915C0.270509 7.23798 0.575413 6.73276 1.02905 6.27583L2.63538 4.68215C2.58332 4.90132 2.57031 5.12979 2.59633 5.36755C2.62236 5.60158 2.68 5.8189 2.76924 6.0195L1.81548 6.97237C1.50314 7.28442 1.29492 7.6299 1.1908 8.00881C1.08669 8.38774 1.08669 8.76665 1.1908 9.14557C1.29492 9.52448 1.505 9.87183 1.82106 10.1876C2.1334 10.5033 2.47921 10.7114 2.85847 10.8117C3.23775 10.9157 3.61701 10.9157 3.99629 10.8117C4.37556 10.7077 4.72137 10.4996 5.0337 10.1876L6.89101 8.33759C7.20336 8.02554 7.40973 7.68005 7.51012 7.30114C7.61424 6.92222 7.61424 6.5433 7.51012 6.16438C7.406 5.78547 7.19592 5.43813 6.87986 5.12236C6.71254 4.95147 6.50803 4.81403 6.26633 4.71001C6.02464 4.606 5.73647 4.53912 5.40182 4.50941L6.2496 3.65127ZM5.7532 8.34873C5.42971 8.28929 5.15269 8.20013 4.92216 8.08126C4.69533 7.96239 4.50199 7.82122 4.34209 7.65777C3.8773 7.19712 3.56868 6.69004 3.41622 6.13653C3.26377 5.58301 3.26377 5.03135 3.41622 4.48154C3.57239 3.92803 3.87916 3.4228 4.33651 2.96587L6.26633 1.03229C6.72369 0.575358 7.22753 0.270738 7.77784 0.118428C8.33188 -0.0375963 8.8859 -0.0394538 9.43993 0.112856C9.99397 0.265166 10.5034 0.5735 10.9682 1.03786C11.4255 1.49479 11.7304 2.00002 11.8829 2.55352C12.039 3.10704 12.039 3.66056 11.8829 4.21408C11.7304 4.76759 11.4274 5.27096 10.9737 5.72418L9.37301 7.31785C9.42135 7.10239 9.4325 6.87764 9.40648 6.64361C9.38044 6.40585 9.32281 6.18482 9.23357 5.9805L10.1873 5.02763C10.4997 4.71559 10.7079 4.37196 10.812 3.99676C10.9198 3.61784 10.9198 3.23892 10.812 2.86C10.7079 2.47737 10.4997 2.13003 10.1873 1.81798C9.86755 1.49851 9.51802 1.28862 9.13875 1.18832C8.7632 1.0843 8.38579 1.0843 8.00652 1.18832C7.63097 1.29233 7.2833 1.50222 6.96353 1.81798L5.11737 3.66242C4.8013 3.97446 4.59122 4.31995 4.48711 4.69886C4.38299 5.07778 4.38299 5.4567 4.48711 5.83562C4.59122 6.21453 4.80316 6.56373 5.12295 6.88321C5.29399 7.05038 5.4985 7.18597 5.73647 7.28999C5.97816 7.394 6.26633 7.46273 6.60099 7.49616L5.7532 8.34873Z" fill="white"/>
</svg>
