<svg width="27" height="27" viewBox="0 0 27 27" fill="none" xmlns="http://www.w3.org/2000/svg">
<path d="M13.083 0C20.3086 0 26.1668 5.85743 26.167 13.083C26.1668 20.3086 20.3086 26.167 13.083 26.167C5.85754 26.1668 0.000173175 20.3085 0 13.083C0.000176267 5.85754 5.85754 0.000176267 13.083 0ZM13.083 1.5C6.68597 1.50018 1.50018 6.68597 1.5 13.083C1.50017 19.4801 6.68597 24.6668 13.083 24.667C19.4802 24.667 24.6668 19.4802 24.667 13.083C24.6668 6.68586 19.4802 1.5 13.083 1.5ZM17.291 10.0908C17.8388 10.0214 18.3396 10.4093 18.4092 10.957C18.4786 11.5048 18.0907 12.0055 17.543 12.0752L17.5342 12.0762C16.4016 12.2175 15.262 12.3285 14.1221 12.3867C14.3079 14.5924 15.1579 16.3043 16.8125 18.0645C17.1907 18.4668 17.1709 19.1002 16.7686 19.4785C16.3662 19.8568 15.7328 19.837 15.3545 19.4346C14.3925 18.4111 13.6478 17.3721 13.1133 16.2568C12.5865 17.3828 11.8256 18.4339 10.7861 19.4609C10.3933 19.8491 9.76024 19.845 9.37207 19.4521C8.98415 19.0593 8.98808 18.4262 9.38086 18.0381C11.1089 16.3306 11.8845 14.6186 12.0488 12.3867C10.9075 12.3286 9.76668 12.2177 8.63281 12.0762L8.625 12.0752C8.07713 12.0057 7.68831 11.5049 7.75781 10.957C7.82742 10.4093 8.32817 10.0213 8.87598 10.0908L8.88184 10.0918C10.2727 10.2654 11.681 10.416 13.083 10.416C14.4852 10.416 15.8931 10.2653 17.2842 10.0918L17.29 10.0908H17.291ZM13.083 5.75C14.1876 5.75 15.083 6.64543 15.083 7.75C15.0828 8.85442 14.1875 9.75 13.083 9.75C11.9787 9.74982 11.0832 8.85431 11.083 7.75C11.083 6.64554 11.9786 5.75018 13.083 5.75Z" fill="white"/>
</svg>
