<svg width="20" height="20" viewBox="0 0 20 20" fill="none" xmlns="http://www.w3.org/2000/svg">
<rect width="20" height="20" rx="5" fill="#2B8AFF"/>
<path d="M10 17C9.03356 17 8.12752 16.8166 7.28188 16.4497C6.43624 16.0872 5.69128 15.5861 5.04698 14.9463C4.40716 14.3065 3.90604 13.5638 3.54362 12.7181C3.18121 11.8725 3 10.9664 3 10C3 9.03356 3.18121 8.12752 3.54362 7.28188C3.90604 6.43624 4.40716 5.69351 5.04698 5.05369C5.69128 4.4094 6.43624 3.90604 7.28188 3.54362C8.12752 3.18121 9.03356 3 10 3C10.9664 3 11.8725 3.18121 12.7181 3.54362C13.5638 3.90604 14.3065 4.4094 14.9463 5.05369C15.5861 5.69351 16.0872 6.43624 16.4497 7.28188C16.8166 8.12752 17 9.03356 17 10C17 10.9664 16.8166 11.8725 16.4497 12.7181C16.0872 13.5638 15.5861 14.3065 14.9463 14.9463C14.3065 15.5861 13.5638 16.0872 12.7181 16.4497C11.8725 16.8166 10.9664 17 10 17ZM10 15.4631C10.7562 15.4631 11.4631 15.3221 12.1208 15.0403C12.783 14.7584 13.3624 14.3669 13.8591 13.8658C14.3602 13.3602 14.7517 12.7785 15.0336 12.1208C15.3199 11.4586 15.4631 10.7517 15.4631 10C15.4631 9.24385 15.3199 8.53691 15.0336 7.87919C14.7517 7.217 14.3602 6.63535 13.8591 6.13423C13.3624 5.63311 12.783 5.24161 12.1208 4.95973C11.4631 4.67785 10.7562 4.53691 10 4.53691C9.24385 4.53691 8.53468 4.67785 7.87248 4.95973C7.21477 5.24161 6.63535 5.63311 6.13423 6.13423C5.63311 6.63535 5.24161 7.217 4.95973 7.87919C4.67785 8.53691 4.53691 9.24385 4.53691 10C4.53691 10.7517 4.67785 11.4586 4.95973 12.1208C5.24161 12.7785 5.63311 13.3602 6.13423 13.8658C6.63535 14.3669 7.21477 14.7584 7.87248 15.0403C8.53468 15.3221 9.24385 15.4631 10 15.4631ZM9.99329 7.79195C10.302 7.79195 10.6376 7.77852 11 7.75168C11.3669 7.72036 11.7159 7.6868 12.047 7.65101C12.3826 7.61074 12.6532 7.57494 12.8591 7.54362C12.8904 7.53915 12.9195 7.53468 12.9463 7.5302C12.9776 7.52125 13.0089 7.51678 13.0403 7.51678C13.1163 7.51678 13.1902 7.55034 13.2617 7.61745C13.3378 7.68009 13.3758 7.76957 13.3758 7.88591C13.3758 8.08277 13.2819 8.20582 13.094 8.25503C13.0447 8.27293 12.9284 8.2953 12.745 8.32215C12.566 8.34452 12.3669 8.37136 12.1477 8.40268C11.9284 8.42953 11.7293 8.45414 11.5503 8.47651C11.3714 8.49888 11.2595 8.51454 11.2148 8.52349C11.0224 8.56823 10.9262 8.70694 10.9262 8.9396C10.9262 9.05593 10.9262 9.2349 10.9262 9.47651C10.9306 9.71812 10.9374 9.96868 10.9463 10.2282C10.9553 10.4832 10.9709 10.6913 10.9933 10.8523C11.0112 10.9508 11.0447 11.1119 11.094 11.3356C11.1432 11.5548 11.1991 11.8009 11.2617 12.0738C11.3244 12.3468 11.3848 12.6107 11.443 12.8658C11.5056 13.1208 11.557 13.3356 11.5973 13.5101C11.6421 13.6846 11.6667 13.7808 11.6711 13.7987C11.7025 13.9284 11.6846 14.0425 11.6174 14.1409C11.5548 14.2349 11.4609 14.2819 11.3356 14.2819C11.1432 14.2819 11.0179 14.1678 10.9597 13.9396C10.9329 13.8188 10.8881 13.6421 10.8255 13.4094C10.7673 13.1723 10.7047 12.9217 10.6376 12.6577C10.5705 12.3893 10.5056 12.1432 10.443 11.9195C10.3848 11.6957 10.3423 11.5347 10.3154 11.4362C10.2662 11.2931 10.2192 11.1924 10.1745 11.1342C10.1298 11.0761 10.0694 11.047 9.99329 11.047C9.91275 11.047 9.85011 11.0761 9.80537 11.1342C9.76063 11.1924 9.71812 11.2931 9.67785 11.4362C9.64653 11.5347 9.59955 11.6957 9.53691 11.9195C9.47875 12.1432 9.41387 12.3893 9.34228 12.6577C9.27517 12.9217 9.21253 13.1723 9.15436 13.4094C9.0962 13.6421 9.05369 13.8188 9.02685 13.9396C8.96421 14.1678 8.83893 14.2819 8.65101 14.2819C8.52125 14.2819 8.42282 14.2349 8.3557 14.1409C8.29306 14.0425 8.2774 13.9284 8.30872 13.7987C8.3132 13.7808 8.33781 13.6846 8.38255 13.5101C8.42729 13.3356 8.47875 13.1208 8.53691 12.8658C8.59955 12.6107 8.66219 12.3468 8.72483 12.0738C8.78747 11.8009 8.84116 11.5548 8.88591 11.3356C8.93512 11.1119 8.96868 10.9508 8.98658 10.8523C9.01342 10.6913 9.03132 10.4832 9.04027 10.2282C9.05369 9.96868 9.06264 9.71812 9.06711 9.47651C9.07159 9.2349 9.07159 9.05593 9.06711 8.9396C9.05817 8.70246 8.95749 8.56376 8.7651 8.52349C8.72036 8.51454 8.6085 8.49888 8.42953 8.47651C8.25056 8.45414 8.05145 8.42953 7.83221 8.40268C7.61745 8.37136 7.41834 8.34452 7.2349 8.32215C7.05145 8.2953 6.93512 8.27293 6.88591 8.25503C6.70246 8.21029 6.61074 8.08725 6.61074 7.88591C6.61074 7.76957 6.6443 7.68009 6.71141 7.61745C6.783 7.55034 6.85906 7.51678 6.9396 7.51678C6.97092 7.51678 7.00224 7.52125 7.03356 7.5302C7.06488 7.53468 7.09396 7.53915 7.12081 7.54362C7.3311 7.57494 7.60179 7.61074 7.93289 7.65101C8.26846 7.6868 8.61745 7.72036 8.97987 7.75168C9.34676 7.77852 9.68456 7.79195 9.99329 7.79195ZM9.99329 7.36242C9.75615 7.36242 9.55481 7.27964 9.38926 7.11409C9.22819 6.94855 9.14765 6.74944 9.14765 6.51678C9.14765 6.28412 9.22819 6.08501 9.38926 5.91946C9.55481 5.75392 9.75615 5.67114 9.99329 5.67114C10.226 5.67114 10.4251 5.75392 10.5906 5.91946C10.7562 6.08501 10.8389 6.28412 10.8389 6.51678C10.8389 6.74944 10.7562 6.94855 10.5906 7.11409C10.4251 7.27964 10.226 7.36242 9.99329 7.36242Z" fill="white"/>
</svg>
