<svg width="20" height="20" viewBox="0 0 20 20" fill="none" xmlns="http://www.w3.org/2000/svg">
<g id="icon/return">
<path id="Vector" d="M6.67176 17.7921C7.0987 17.7921 7.38092 17.5019 7.38092 17.0829C7.38092 16.8732 7.31629 16.7202 7.18739 16.5913L4.86705 14.3274L3.33631 13.0225L5.22971 13.1029H15.51C17.3869 13.1029 18.1689 12.2408 18.1689 10.4199V5.65894C18.1689 3.7817 17.3872 3 15.51 3H10.9982C10.5551 3 10.265 3.32244 10.265 3.71707C10.265 4.11204 10.5551 4.43414 10.9982 4.43414H15.51C16.3639 4.43414 16.7348 4.80471 16.7348 5.65894V10.4199C16.7348 11.2982 16.3639 11.6688 15.51 11.6688H5.22971L3.33631 11.7496L4.86705 10.4443L7.18739 8.18037C7.31629 8.05146 7.38092 7.89024 7.38092 7.68089C7.38092 7.26976 7.09904 6.97173 6.67176 6.97173C6.49472 6.97173 6.28503 7.06042 6.14822 7.19723L1.4106 11.8465C1.24973 11.9995 1.16895 12.1848 1.16895 12.3862C1.16895 12.5797 1.24973 12.7729 1.4106 12.9259L6.14822 17.5748C6.28933 17.7103 6.47616 17.7876 6.67176 17.7921Z" fill="white"/>
</g>
</svg>
