<svg width="17" height="17" viewBox="0 0 17 17" fill="none" xmlns="http://www.w3.org/2000/svg">
<g clip-path="url(#clip0_6035_5276)">
<path d="M5.99316 1.25C6.54753 1.25 7.08095 1.46249 7.4834 1.84375L8.27832 2.59668C8.49502 2.80198 8.78254 2.91699 9.08105 2.91699H14.667C15.8634 2.91717 16.8328 3.88665 16.833 5.08301V13.417C16.8328 14.6134 15.8634 15.5828 14.667 15.583H2.16699C0.970484 15.583 0.000176249 14.6135 0 13.417V3.41699C0 2.22038 0.970375 1.25 2.16699 1.25H5.99316ZM2.16699 7.25C1.52266 7.25 1 7.77266 1 8.41699V13.417C1.00018 14.0612 1.52277 14.583 2.16699 14.583H14.667C15.3111 14.5828 15.8328 14.0611 15.833 13.417V8.41699L15.8271 8.29785C15.7676 7.70944 15.2711 7.25017 14.667 7.25H2.16699ZM2.16699 2.25C1.52266 2.25 1 2.77266 1 3.41699V6.59277C1.33697 6.37678 1.73703 6.25 2.16699 6.25H14.667C15.0967 6.25006 15.4962 6.37692 15.833 6.59277V5.08301C15.8328 4.43893 15.3111 3.91717 14.667 3.91699H9.08105C8.52679 3.91699 7.99324 3.70436 7.59082 3.32324L6.7959 2.56934C6.5792 2.36408 6.29164 2.25 5.99316 2.25H2.16699Z" fill="#D9D9D9"/>
</g>
<defs>
<clipPath id="clip0_6035_5276">
<rect width="16.83" height="16.83" fill="white"/>
</clipPath>
</defs>
</svg>
