<svg width="20" height="20" viewBox="0 0 20 20" fill="none" xmlns="http://www.w3.org/2000/svg">
<path d="M18.1706 8.36922H17.4993V8.33463H9.99935V11.668H14.7089C14.0218 13.6084 12.1756 15.0013 9.99935 15.0013C7.2381 15.0013 4.99935 12.7626 4.99935 10.0013C4.99935 7.24005 7.2381 5.0013 9.99935 5.0013C11.2739 5.0013 12.4335 5.48213 13.3164 6.26755L15.6735 3.91047C14.1852 2.52339 12.1943 1.66797 9.99935 1.66797C5.39726 1.66797 1.66602 5.39922 1.66602 10.0013C1.66602 14.6034 5.39726 18.3346 9.99935 18.3346C14.6014 18.3346 18.3327 14.6034 18.3327 10.0013C18.3327 9.44255 18.2752 8.89713 18.1706 8.36922Z" fill="#FFC107"/>
<path d="M2.62695 6.12255L5.36487 8.13047C6.1057 6.2963 7.89987 5.0013 9.99945 5.0013C11.274 5.0013 12.4336 5.48214 13.3165 6.26755L15.6736 3.91047C14.1853 2.52339 12.1945 1.66797 9.99945 1.66797C6.79862 1.66797 4.02279 3.47505 2.62695 6.12255Z" fill="#FF3D00"/>
<path d="M10.0008 18.3317C12.1533 18.3317 14.1091 17.5079 15.5879 16.1683L13.0087 13.9858C12.1439 14.6435 11.0872 14.9992 10.0008 14.9983C7.83328 14.9983 5.99286 13.6163 5.29953 11.6875L2.58203 13.7812C3.9612 16.48 6.76203 18.3317 10.0008 18.3317Z" fill="#4CAF50"/>
<path d="M18.1712 8.36661H17.5V8.33203H10V11.6654H14.7096C14.3809 12.5889 13.7889 13.3959 13.0067 13.9866L13.0079 13.9858L15.5871 16.1683C15.4046 16.3341 18.3333 14.1654 18.3333 9.9987C18.3333 9.43995 18.2758 8.89453 18.1712 8.36661Z" fill="#1976D2"/>
</svg>
