<svg width="11" height="11" viewBox="0 0 11 11" fill="none" xmlns="http://www.w3.org/2000/svg">
<path d="M3.91021 10C3.54068 10 3.25683 9.90304 3.05863 9.70908C2.86379 9.51512 2.76637 9.25121 2.76637 8.91734V6.83785H0.781034C0.555962 6.83785 0.369522 6.77903 0.221713 6.66138C0.0739042 6.54373 0 6.38793 0 6.19397C0 6.07314 0.0268743 5.96663 0.0806229 5.87442C0.13773 5.78221 0.221713 5.68364 0.332569 5.5787L4.84241 1.30524C4.94318 1.20667 5.04732 1.13196 5.15482 1.08108C5.26567 1.02703 5.37989 1 5.49746 1C5.6184 1 5.73262 1.02703 5.84011 1.08108C5.95098 1.13196 6.05678 1.20667 6.15757 1.30524L10.6674 5.5787C10.7715 5.68045 10.8521 5.77902 10.9093 5.87442C10.9698 5.96663 11 6.07314 11 6.19397C11 6.38793 10.9244 6.54373 10.7732 6.66138C10.6254 6.77903 10.4407 6.83785 10.2189 6.83785H8.2336V8.91734C8.2336 9.25121 8.1345 9.51512 7.9363 9.70908C7.74147 9.90304 7.45928 10 7.08977 10H3.91021ZM4.10168 9.06997H6.89828C6.98227 9.06997 7.05281 9.04294 7.10992 8.9889C7.17039 8.93484 7.20062 8.86807 7.20062 8.78857V6.14151C7.20062 6.0334 7.25438 5.97934 7.36187 5.97934H9.56388C9.59747 5.97934 9.61427 5.96822 9.61427 5.94596C9.61427 5.93006 9.60419 5.91257 9.58403 5.89349L5.59321 2.13037C5.57641 2.11447 5.55961 2.10334 5.54282 2.09698C5.52938 2.09062 5.51427 2.08745 5.49746 2.08745C5.48403 2.08745 5.46891 2.09062 5.45212 2.09698C5.43868 2.10334 5.42357 2.11447 5.40676 2.13037L1.4109 5.89349C1.39074 5.91257 1.38066 5.93006 1.38066 5.94596C1.38066 5.96822 1.39746 5.97934 1.43105 5.97934H3.6381C3.7456 5.97934 3.79934 6.0334 3.79934 6.14151V8.78857C3.79934 8.87124 3.8279 8.93801 3.88501 8.9889C3.94212 9.04294 4.01435 9.06997 4.10168 9.06997Z" fill="white"/>
</svg>
